solid Square30x30x10
   facet normal -1.000000e+000 2.312965e-016 0.000000e+000
      outer loop
         vertex 0.000000e+000 0.000000e+000 1.000000e+001
         vertex 0.000000e+000 3.000000e+001 1.000000e+001
         vertex 0.000000e+000 0.000000e+000 0.000000e+000
      endloop
   endfacet
   facet normal -1.000000e+000 2.312965e-016 0.000000e+000
      outer loop
         vertex 0.000000e+000 0.000000e+000 0.000000e+000
         vertex 0.000000e+000 3.000000e+001 1.000000e+001
         vertex 0.000000e+000 3.000000e+001 0.000000e+000
      endloop
   endfacet
   facet normal -2.891206e-016 -1.000000e+000 0.000000e+000
      outer loop
         vertex 3.000000e+001 0.000000e+000 1.000000e+001
         vertex 0.000000e+000 0.000000e+000 1.000000e+001
         vertex 3.000000e+001 0.000000e+000 0.000000e+000
      endloop
   endfacet
   facet normal -2.891206e-016 -1.000000e+000 0.000000e+000
      outer loop
         vertex 3.000000e+001 0.000000e+000 0.000000e+000
         vertex 0.000000e+000 0.000000e+000 1.000000e+001
         vertex 0.000000e+000 0.000000e+000 0.000000e+000
      endloop
   endfacet
   facet normal 1.000000e+000 0.000000e+000 0.000000e+000
      outer loop
         vertex 3.000000e+001 3.000000e+001 1.000000e+001
         vertex 3.000000e+001 0.000000e+000 1.000000e+001
         vertex 3.000000e+001 3.000000e+001 0.000000e+000
      endloop
   endfacet
   facet normal 1.000000e+000 0.000000e+000 0.000000e+000
      outer loop
         vertex 3.000000e+001 3.000000e+001 0.000000e+000
         vertex 3.000000e+001 0.000000e+000 1.000000e+001
         vertex 3.000000e+001 0.000000e+000 0.000000e+000
      endloop
   endfacet
   facet normal 5.782411e-017 1.000000e+000 0.000000e+000
      outer loop
         vertex 0.000000e+000 3.000000e+001 1.000000e+001
         vertex 3.000000e+001 3.000000e+001 1.000000e+001
         vertex 0.000000e+000 3.000000e+001 0.000000e+000
      endloop
   endfacet
   facet normal 5.782411e-017 1.000000e+000 0.000000e+000
      outer loop
         vertex 0.000000e+000 3.000000e+001 0.000000e+000
         vertex 3.000000e+001 3.000000e+001 1.000000e+001
         vertex 3.000000e+001 3.000000e+001 0.000000e+000
      endloop
   endfacet
   facet normal 0.000000e+000 0.000000e+000 1.000000e+000
      outer loop
         vertex 3.000000e+001 0.000000e+000 1.000000e+001
         vertex 3.000000e+001 3.000000e+001 1.000000e+001
         vertex 0.000000e+000 0.000000e+000 1.000000e+001
      endloop
   endfacet
   facet normal 0.000000e+000 0.000000e+000 1.000000e+000
      outer loop
         vertex 0.000000e+000 0.000000e+000 1.000000e+001
         vertex 3.000000e+001 3.000000e+001 1.000000e+001
         vertex 0.000000e+000 3.000000e+001 1.000000e+001
      endloop
   endfacet
   facet normal 0.000000e+000 0.000000e+000 -1.000000e+000
      outer loop
         vertex 3.000000e+001 3.000000e+001 0.000000e+000
         vertex 3.000000e+001 0.000000e+000 0.000000e+000
         vertex 0.000000e+000 3.000000e+001 0.000000e+000
      endloop
   endfacet
   facet normal 0.000000e+000 0.000000e+000 -1.000000e+000
      outer loop
         vertex 0.000000e+000 3.000000e+001 0.000000e+000
         vertex 3.000000e+001 0.000000e+000 0.000000e+000
         vertex 0.000000e+000 0.000000e+000 0.000000e+000
      endloop
   endfacet
endsolid Square30x30x10