solid HolePlate50x20x10
   facet normal 0.000000e+000 0.000000e+000 1.000000e+000
      outer loop
         vertex 3.854189e+001 2.090885e+001 1.000000e+001
         vertex 3.955212e+001 2.063815e+001 1.000000e+001
         vertex 5.000000e+001 3.000000e+001 1.000000e+001
      endloop
   endfacet
   facet normal 0.000000e+000 0.000000e+000 1.000000e+000
      outer loop
         vertex 1.709627e+001 1.114327e+001 1.000000e+001
         vertex 1.635673e+001 1.040373e+001 1.000000e+001
         vertex 5.000000e+001 0.000000e+000 1.000000e+001
      endloop
   endfacet
   facet normal 0.000000e+000 0.000000e+000 1.000000e+000
      outer loop
         vertex 5.000000e+001 0.000000e+000 1.000000e+001
         vertex 1.635673e+001 1.040373e+001 1.000000e+001
         vertex 1.550000e+001 9.803847e+000 1.000000e+001
      endloop
   endfacet
   facet normal 0.000000e+000 0.000000e+000 1.000000e+000
      outer loop
         vertex 5.000000e+001 0.000000e+000 1.000000e+001
         vertex 5.000000e+001 3.000000e+001 1.000000e+001
         vertex 4.340885e+001 1.604189e+001 1.000000e+001
      endloop
   endfacet
   facet normal 0.000000e+000 0.000000e+000 1.000000e+000
      outer loop
         vertex 4.340885e+001 1.604189e+001 1.000000e+001
         vertex 4.350000e+001 1.500000e+001 1.000000e+001
         vertex 5.000000e+001 0.000000e+000 1.000000e+001
      endloop
   endfacet
   facet normal 0.000000e+000 0.000000e+000 1.000000e+000
      outer loop
         vertex 5.000000e+001 0.000000e+000 1.000000e+001
         vertex 4.350000e+001 1.500000e+001 1.000000e+001
         vertex 4.340885e+001 1.395811e+001 1.000000e+001
      endloop
   endfacet
   facet normal 0.000000e+000 0.000000e+000 1.000000e+000
      outer loop
         vertex 5.000000e+001 0.000000e+000 1.000000e+001
         vertex 4.340885e+001 1.395811e+001 1.000000e+001
         vertex 4.313815e+001 1.294788e+001 1.000000e+001
      endloop
   endfacet
   facet normal 0.000000e+000 0.000000e+000 1.000000e+000
      outer loop
         vertex 3.955212e+001 2.063815e+001 1.000000e+001
         vertex 4.050000e+001 2.019615e+001 1.000000e+001
         vertex 5.000000e+001 3.000000e+001 1.000000e+001
      endloop
   endfacet
   facet normal 0.000000e+000 0.000000e+000 1.000000e+000
      outer loop
         vertex 5.000000e+001 3.000000e+001 1.000000e+001
         vertex 4.050000e+001 2.019615e+001 1.000000e+001
         vertex 4.135673e+001 1.959627e+001 1.000000e+001
      endloop
   endfacet
   facet normal 0.000000e+000 0.000000e+000 1.000000e+000
      outer loop
         vertex 5.000000e+001 3.000000e+001 1.000000e+001
         vertex 4.135673e+001 1.959627e+001 1.000000e+001
         vertex 4.209626e+001 1.885672e+001 1.000000e+001
      endloop
   endfacet
   facet normal 0.000000e+000 0.000000e+000 1.000000e+000
      outer loop
         vertex 4.313815e+001 1.294788e+001 1.000000e+001
         vertex 4.269615e+001 1.200000e+001 1.000000e+001
         vertex 5.000000e+001 0.000000e+000 1.000000e+001
      endloop
   endfacet
   facet normal 0.000000e+000 0.000000e+000 1.000000e+000
      outer loop
         vertex 5.000000e+001 0.000000e+000 1.000000e+001
         vertex 4.269615e+001 1.200000e+001 1.000000e+001
         vertex 4.209626e+001 1.114327e+001 1.000000e+001
      endloop
   endfacet
   facet normal 0.000000e+000 0.000000e+000 1.000000e+000
      outer loop
         vertex 5.000000e+001 0.000000e+000 1.000000e+001
         vertex 4.209626e+001 1.114327e+001 1.000000e+001
         vertex 4.135673e+001 1.040373e+001 1.000000e+001
      endloop
   endfacet
   facet normal 0.000000e+000 0.000000e+000 1.000000e+000
      outer loop
         vertex 4.209626e+001 1.885672e+001 1.000000e+001
         vertex 4.269615e+001 1.800000e+001 1.000000e+001
         vertex 5.000000e+001 3.000000e+001 1.000000e+001
      endloop
   endfacet
   facet normal 0.000000e+000 0.000000e+000 1.000000e+000
      outer loop
         vertex 5.000000e+001 3.000000e+001 1.000000e+001
         vertex 4.269615e+001 1.800000e+001 1.000000e+001
         vertex 4.313815e+001 1.705212e+001 1.000000e+001
      endloop
   endfacet
   facet normal 0.000000e+000 0.000000e+000 1.000000e+000
      outer loop
         vertex 5.000000e+001 3.000000e+001 1.000000e+001
         vertex 4.313815e+001 1.705212e+001 1.000000e+001
         vertex 4.340885e+001 1.604189e+001 1.000000e+001
      endloop
   endfacet
   facet normal 0.000000e+000 0.000000e+000 1.000000e+000
      outer loop
         vertex 1.550000e+001 9.803847e+000 1.000000e+001
         vertex 1.455212e+001 9.361844e+000 1.000000e+001
         vertex 5.000000e+001 0.000000e+000 1.000000e+001
      endloop
   endfacet
   facet normal 0.000000e+000 0.000000e+000 1.000000e+000
      outer loop
         vertex 5.000000e+001 0.000000e+000 1.000000e+001
         vertex 1.455212e+001 9.361844e+000 1.000000e+001
         vertex 1.354189e+001 9.091154e+000 1.000000e+001
      endloop
   endfacet
   facet normal 0.000000e+000 0.000000e+000 1.000000e+000
      outer loop
         vertex 5.000000e+001 0.000000e+000 1.000000e+001
         vertex 1.354189e+001 9.091154e+000 1.000000e+001
         vertex 0.000000e+000 0.000000e+000 1.000000e+001
      endloop
   endfacet
   facet normal 0.000000e+000 0.000000e+000 1.000000e+000
      outer loop
         vertex 0.000000e+000 0.000000e+000 1.000000e+001
         vertex 1.354189e+001 9.091154e+000 1.000000e+001
         vertex 1.250000e+001 9.000000e+000 1.000000e+001
      endloop
   endfacet
   facet normal 0.000000e+000 0.000000e+000 1.000000e+000
      outer loop
         vertex 0.000000e+000 0.000000e+000 1.000000e+001
         vertex 1.250000e+001 9.000000e+000 1.000000e+001
         vertex 1.145811e+001 9.091154e+000 1.000000e+001
      endloop
   endfacet
   facet normal 0.000000e+000 0.000000e+000 1.000000e+000
      outer loop
         vertex 1.550000e+001 2.019615e+001 1.000000e+001
         vertex 1.635673e+001 1.959627e+001 1.000000e+001
         vertex 3.290374e+001 1.114327e+001 1.000000e+001
      endloop
   endfacet
   facet normal 0.000000e+000 0.000000e+000 1.000000e+000
      outer loop
         vertex 3.290374e+001 1.114327e+001 1.000000e+001
         vertex 1.635673e+001 1.959627e+001 1.000000e+001
         vertex 1.709627e+001 1.885672e+001 1.000000e+001
      endloop
   endfacet
   facet normal 0.000000e+000 0.000000e+000 1.000000e+000
      outer loop
         vertex 3.290374e+001 1.114327e+001 1.000000e+001
         vertex 1.709627e+001 1.885672e+001 1.000000e+001
         vertex 1.769615e+001 1.800000e+001 1.000000e+001
      endloop
   endfacet
   facet normal 0.000000e+000 0.000000e+000 1.000000e+000
      outer loop
         vertex 1.145811e+001 9.091154e+000 1.000000e+001
         vertex 1.044788e+001 9.361844e+000 1.000000e+001
         vertex 0.000000e+000 0.000000e+000 1.000000e+001
      endloop
   endfacet
   facet normal 0.000000e+000 0.000000e+000 1.000000e+000
      outer loop
         vertex 0.000000e+000 0.000000e+000 1.000000e+001
         vertex 1.044788e+001 9.361844e+000 1.000000e+001
         vertex 9.500001e+000 9.803847e+000 1.000000e+001
      endloop
   endfacet
   facet normal 0.000000e+000 0.000000e+000 1.000000e+000
      outer loop
         vertex 0.000000e+000 0.000000e+000 1.000000e+001
         vertex 9.500001e+000 9.803847e+000 1.000000e+001
         vertex 8.643275e+000 1.040373e+001 1.000000e+001
      endloop
   endfacet
   facet normal 0.000000e+000 0.000000e+000 1.000000e+000
      outer loop
         vertex 8.643275e+000 1.040373e+001 1.000000e+001
         vertex 7.903734e+000 1.114327e+001 1.000000e+001
         vertex 0.000000e+000 0.000000e+000 1.000000e+001
      endloop
   endfacet
   facet normal 0.000000e+000 0.000000e+000 1.000000e+000
      outer loop
         vertex 0.000000e+000 0.000000e+000 1.000000e+001
         vertex 7.903734e+000 1.114327e+001 1.000000e+001
         vertex 7.303849e+000 1.200000e+001 1.000000e+001
      endloop
   endfacet
   facet normal 0.000000e+000 0.000000e+000 1.000000e+000
      outer loop
         vertex 0.000000e+000 0.000000e+000 1.000000e+001
         vertex 7.303849e+000 1.200000e+001 1.000000e+001
         vertex 6.861845e+000 1.294788e+001 1.000000e+001
      endloop
   endfacet
   facet normal 0.000000e+000 0.000000e+000 1.000000e+000
      outer loop
         vertex 6.861845e+000 1.294788e+001 1.000000e+001
         vertex 6.591154e+000 1.395811e+001 1.000000e+001
         vertex 0.000000e+000 0.000000e+000 1.000000e+001
      endloop
   endfacet
   facet normal 0.000000e+000 0.000000e+000 1.000000e+000
      outer loop
         vertex 0.000000e+000 0.000000e+000 1.000000e+001
         vertex 6.591154e+000 1.395811e+001 1.000000e+001
         vertex 6.500000e+000 1.500000e+001 1.000000e+001
      endloop
   endfacet
   facet normal 0.000000e+000 0.000000e+000 1.000000e+000
      outer loop
         vertex 0.000000e+000 0.000000e+000 1.000000e+001
         vertex 6.500000e+000 1.500000e+001 1.000000e+001
         vertex 0.000000e+000 3.000000e+001 1.000000e+001
      endloop
   endfacet
   facet normal 0.000000e+000 0.000000e+000 1.000000e+000
      outer loop
         vertex 0.000000e+000 3.000000e+001 1.000000e+001
         vertex 6.500000e+000 1.500000e+001 1.000000e+001
         vertex 6.591154e+000 1.604189e+001 1.000000e+001
      endloop
   endfacet
   facet normal 0.000000e+000 0.000000e+000 1.000000e+000
      outer loop
         vertex 0.000000e+000 3.000000e+001 1.000000e+001
         vertex 6.591154e+000 1.604189e+001 1.000000e+001
         vertex 6.861845e+000 1.705212e+001 1.000000e+001
      endloop
   endfacet
   facet normal 0.000000e+000 0.000000e+000 1.000000e+000
      outer loop
         vertex 6.861845e+000 1.705212e+001 1.000000e+001
         vertex 7.303849e+000 1.800000e+001 1.000000e+001
         vertex 0.000000e+000 3.000000e+001 1.000000e+001
      endloop
   endfacet
   facet normal 0.000000e+000 0.000000e+000 1.000000e+000
      outer loop
         vertex 0.000000e+000 3.000000e+001 1.000000e+001
         vertex 7.303849e+000 1.800000e+001 1.000000e+001
         vertex 7.903734e+000 1.885672e+001 1.000000e+001
      endloop
   endfacet
   facet normal 0.000000e+000 0.000000e+000 1.000000e+000
      outer loop
         vertex 0.000000e+000 3.000000e+001 1.000000e+001
         vertex 7.903734e+000 1.885672e+001 1.000000e+001
         vertex 8.643275e+000 1.959627e+001 1.000000e+001
      endloop
   endfacet
   facet normal 0.000000e+000 0.000000e+000 1.000000e+000
      outer loop
         vertex 4.135673e+001 1.040373e+001 1.000000e+001
         vertex 4.050000e+001 9.803847e+000 1.000000e+001
         vertex 5.000000e+001 0.000000e+000 1.000000e+001
      endloop
   endfacet
   facet normal 0.000000e+000 0.000000e+000 1.000000e+000
      outer loop
         vertex 5.000000e+001 0.000000e+000 1.000000e+001
         vertex 4.050000e+001 9.803847e+000 1.000000e+001
         vertex 3.955212e+001 9.361844e+000 1.000000e+001
      endloop
   endfacet
   facet normal 0.000000e+000 0.000000e+000 1.000000e+000
      outer loop
         vertex 5.000000e+001 0.000000e+000 1.000000e+001
         vertex 3.955212e+001 9.361844e+000 1.000000e+001
         vertex 3.854189e+001 9.091154e+000 1.000000e+001
      endloop
   endfacet
   facet normal 0.000000e+000 0.000000e+000 1.000000e+000
      outer loop
         vertex 1.769615e+001 1.800000e+001 1.000000e+001
         vertex 1.813815e+001 1.705212e+001 1.000000e+001
         vertex 3.290374e+001 1.114327e+001 1.000000e+001
      endloop
   endfacet
   facet normal 0.000000e+000 0.000000e+000 1.000000e+000
      outer loop
         vertex 3.290374e+001 1.114327e+001 1.000000e+001
         vertex 1.813815e+001 1.705212e+001 1.000000e+001
         vertex 1.840885e+001 1.604189e+001 1.000000e+001
      endloop
   endfacet
   facet normal 0.000000e+000 0.000000e+000 1.000000e+000
      outer loop
         vertex 3.290374e+001 1.114327e+001 1.000000e+001
         vertex 1.840885e+001 1.604189e+001 1.000000e+001
         vertex 3.364328e+001 1.040373e+001 1.000000e+001
      endloop
   endfacet
   facet normal 0.000000e+000 0.000000e+000 1.000000e+000
      outer loop
         vertex 3.364328e+001 1.040373e+001 1.000000e+001
         vertex 1.840885e+001 1.604189e+001 1.000000e+001
         vertex 1.850000e+001 1.500000e+001 1.000000e+001
      endloop
   endfacet
   facet normal 0.000000e+000 0.000000e+000 1.000000e+000
      outer loop
         vertex 3.364328e+001 1.040373e+001 1.000000e+001
         vertex 1.850000e+001 1.500000e+001 1.000000e+001
         vertex 3.450000e+001 9.803847e+000 1.000000e+001
      endloop
   endfacet
   facet normal 0.000000e+000 0.000000e+000 1.000000e+000
      outer loop
         vertex 3.450000e+001 9.803847e+000 1.000000e+001
         vertex 1.850000e+001 1.500000e+001 1.000000e+001
         vertex 3.544788e+001 9.361844e+000 1.000000e+001
      endloop
   endfacet
   facet normal 0.000000e+000 0.000000e+000 1.000000e+000
      outer loop
         vertex 8.643275e+000 1.959627e+001 1.000000e+001
         vertex 9.500001e+000 2.019615e+001 1.000000e+001
         vertex 0.000000e+000 3.000000e+001 1.000000e+001
      endloop
   endfacet
   facet normal 0.000000e+000 0.000000e+000 1.000000e+000
      outer loop
         vertex 0.000000e+000 3.000000e+001 1.000000e+001
         vertex 9.500001e+000 2.019615e+001 1.000000e+001
         vertex 1.044788e+001 2.063815e+001 1.000000e+001
      endloop
   endfacet
   facet normal 0.000000e+000 0.000000e+000 1.000000e+000
      outer loop
         vertex 0.000000e+000 3.000000e+001 1.000000e+001
         vertex 1.044788e+001 2.063815e+001 1.000000e+001
         vertex 1.145811e+001 2.090885e+001 1.000000e+001
      endloop
   endfacet
   facet normal 0.000000e+000 0.000000e+000 1.000000e+000
      outer loop
         vertex 3.290374e+001 1.114327e+001 1.000000e+001
         vertex 3.230385e+001 1.200000e+001 1.000000e+001
         vertex 1.550000e+001 2.019615e+001 1.000000e+001
      endloop
   endfacet
   facet normal 0.000000e+000 0.000000e+000 1.000000e+000
      outer loop
         vertex 1.550000e+001 2.019615e+001 1.000000e+001
         vertex 3.230385e+001 1.200000e+001 1.000000e+001
         vertex 3.186185e+001 1.294788e+001 1.000000e+001
      endloop
   endfacet
   facet normal 0.000000e+000 0.000000e+000 1.000000e+000
      outer loop
         vertex 1.550000e+001 2.019615e+001 1.000000e+001
         vertex 3.186185e+001 1.294788e+001 1.000000e+001
         vertex 1.455212e+001 2.063815e+001 1.000000e+001
      endloop
   endfacet
   facet normal 0.000000e+000 0.000000e+000 1.000000e+000
      outer loop
         vertex 1.455212e+001 2.063815e+001 1.000000e+001
         vertex 3.186185e+001 1.294788e+001 1.000000e+001
         vertex 3.159115e+001 1.395811e+001 1.000000e+001
      endloop
   endfacet
   facet normal 0.000000e+000 0.000000e+000 1.000000e+000
      outer loop
         vertex 1.455212e+001 2.063815e+001 1.000000e+001
         vertex 3.159115e+001 1.395811e+001 1.000000e+001
         vertex 3.150000e+001 1.500000e+001 1.000000e+001
      endloop
   endfacet
   facet normal 0.000000e+000 0.000000e+000 1.000000e+000
      outer loop
         vertex 3.854189e+001 9.091154e+000 1.000000e+001
         vertex 3.750000e+001 9.000000e+000 1.000000e+001
         vertex 5.000000e+001 0.000000e+000 1.000000e+001
      endloop
   endfacet
   facet normal 0.000000e+000 0.000000e+000 1.000000e+000
      outer loop
         vertex 5.000000e+001 0.000000e+000 1.000000e+001
         vertex 3.750000e+001 9.000000e+000 1.000000e+001
         vertex 3.645811e+001 9.091154e+000 1.000000e+001
      endloop
   endfacet
   facet normal 0.000000e+000 0.000000e+000 1.000000e+000
      outer loop
         vertex 5.000000e+001 0.000000e+000 1.000000e+001
         vertex 3.645811e+001 9.091154e+000 1.000000e+001
         vertex 3.544788e+001 9.361844e+000 1.000000e+001
      endloop
   endfacet
   facet normal 0.000000e+000 0.000000e+000 1.000000e+000
      outer loop
         vertex 1.850000e+001 1.500000e+001 1.000000e+001
         vertex 1.840885e+001 1.395811e+001 1.000000e+001
         vertex 3.544788e+001 9.361844e+000 1.000000e+001
      endloop
   endfacet
   facet normal 0.000000e+000 0.000000e+000 1.000000e+000
      outer loop
         vertex 3.544788e+001 9.361844e+000 1.000000e+001
         vertex 1.840885e+001 1.395811e+001 1.000000e+001
         vertex 1.813815e+001 1.294788e+001 1.000000e+001
      endloop
   endfacet
   facet normal 0.000000e+000 0.000000e+000 1.000000e+000
      outer loop
         vertex 3.544788e+001 9.361844e+000 1.000000e+001
         vertex 1.813815e+001 1.294788e+001 1.000000e+001
         vertex 5.000000e+001 0.000000e+000 1.000000e+001
      endloop
   endfacet
   facet normal 0.000000e+000 0.000000e+000 1.000000e+000
      outer loop
         vertex 5.000000e+001 0.000000e+000 1.000000e+001
         vertex 1.813815e+001 1.294788e+001 1.000000e+001
         vertex 1.769615e+001 1.200000e+001 1.000000e+001
      endloop
   endfacet
   facet normal 0.000000e+000 0.000000e+000 1.000000e+000
      outer loop
         vertex 5.000000e+001 0.000000e+000 1.000000e+001
         vertex 1.769615e+001 1.200000e+001 1.000000e+001
         vertex 1.709627e+001 1.114327e+001 1.000000e+001
      endloop
   endfacet
   facet normal 0.000000e+000 0.000000e+000 1.000000e+000
      outer loop
         vertex 1.145811e+001 2.090885e+001 1.000000e+001
         vertex 1.250000e+001 2.100000e+001 1.000000e+001
         vertex 0.000000e+000 3.000000e+001 1.000000e+001
      endloop
   endfacet
   facet normal 0.000000e+000 0.000000e+000 1.000000e+000
      outer loop
         vertex 0.000000e+000 3.000000e+001 1.000000e+001
         vertex 1.250000e+001 2.100000e+001 1.000000e+001
         vertex 1.354189e+001 2.090885e+001 1.000000e+001
      endloop
   endfacet
   facet normal 0.000000e+000 0.000000e+000 1.000000e+000
      outer loop
         vertex 0.000000e+000 3.000000e+001 1.000000e+001
         vertex 1.354189e+001 2.090885e+001 1.000000e+001
         vertex 1.455212e+001 2.063815e+001 1.000000e+001
      endloop
   endfacet
   facet normal 0.000000e+000 0.000000e+000 1.000000e+000
      outer loop
         vertex 3.290374e+001 1.885672e+001 1.000000e+001
         vertex 3.364328e+001 1.959627e+001 1.000000e+001
         vertex 0.000000e+000 3.000000e+001 1.000000e+001
      endloop
   endfacet
   facet normal 0.000000e+000 0.000000e+000 1.000000e+000
      outer loop
         vertex 0.000000e+000 3.000000e+001 1.000000e+001
         vertex 3.364328e+001 1.959627e+001 1.000000e+001
         vertex 3.450000e+001 2.019615e+001 1.000000e+001
      endloop
   endfacet
   facet normal 0.000000e+000 0.000000e+000 1.000000e+000
      outer loop
         vertex 3.150000e+001 1.500000e+001 1.000000e+001
         vertex 3.159115e+001 1.604189e+001 1.000000e+001
         vertex 1.455212e+001 2.063815e+001 1.000000e+001
      endloop
   endfacet
   facet normal 0.000000e+000 0.000000e+000 1.000000e+000
      outer loop
         vertex 1.455212e+001 2.063815e+001 1.000000e+001
         vertex 3.159115e+001 1.604189e+001 1.000000e+001
         vertex 3.186185e+001 1.705212e+001 1.000000e+001
      endloop
   endfacet
   facet normal 0.000000e+000 0.000000e+000 1.000000e+000
      outer loop
         vertex 1.455212e+001 2.063815e+001 1.000000e+001
         vertex 3.186185e+001 1.705212e+001 1.000000e+001
         vertex 0.000000e+000 3.000000e+001 1.000000e+001
      endloop
   endfacet
   facet normal 0.000000e+000 0.000000e+000 1.000000e+000
      outer loop
         vertex 0.000000e+000 3.000000e+001 1.000000e+001
         vertex 3.186185e+001 1.705212e+001 1.000000e+001
         vertex 3.230385e+001 1.800000e+001 1.000000e+001
      endloop
   endfacet
   facet normal 0.000000e+000 0.000000e+000 1.000000e+000
      outer loop
         vertex 0.000000e+000 3.000000e+001 1.000000e+001
         vertex 3.230385e+001 1.800000e+001 1.000000e+001
         vertex 3.290374e+001 1.885672e+001 1.000000e+001
      endloop
   endfacet
   facet normal 0.000000e+000 0.000000e+000 1.000000e+000
      outer loop
         vertex 3.450000e+001 2.019615e+001 1.000000e+001
         vertex 3.544788e+001 2.063815e+001 1.000000e+001
         vertex 0.000000e+000 3.000000e+001 1.000000e+001
      endloop
   endfacet
   facet normal 0.000000e+000 0.000000e+000 1.000000e+000
      outer loop
         vertex 0.000000e+000 3.000000e+001 1.000000e+001
         vertex 3.544788e+001 2.063815e+001 1.000000e+001
         vertex 3.645811e+001 2.090885e+001 1.000000e+001
      endloop
   endfacet
   facet normal 0.000000e+000 0.000000e+000 1.000000e+000
      outer loop
         vertex 0.000000e+000 3.000000e+001 1.000000e+001
         vertex 3.645811e+001 2.090885e+001 1.000000e+001
         vertex 5.000000e+001 3.000000e+001 1.000000e+001
      endloop
   endfacet
   facet normal 0.000000e+000 0.000000e+000 1.000000e+000
      outer loop
         vertex 5.000000e+001 3.000000e+001 1.000000e+001
         vertex 3.645811e+001 2.090885e+001 1.000000e+001
         vertex 3.750000e+001 2.100000e+001 1.000000e+001
      endloop
   endfacet
   facet normal 0.000000e+000 0.000000e+000 1.000000e+000
      outer loop
         vertex 5.000000e+001 3.000000e+001 1.000000e+001
         vertex 3.750000e+001 2.100000e+001 1.000000e+001
         vertex 3.854189e+001 2.090885e+001 1.000000e+001
      endloop
   endfacet
   facet normal 0.000000e+000 0.000000e+000 -1.000000e+000
      outer loop
         vertex 0.000000e+000 3.000000e+001 0.000000e+000
         vertex 6.500000e+000 1.500000e+001 0.000000e+000
         vertex 0.000000e+000 0.000000e+000 0.000000e+000
      endloop
   endfacet
   facet normal 0.000000e+000 0.000000e+000 -1.000000e+000
      outer loop
         vertex 0.000000e+000 0.000000e+000 0.000000e+000
         vertex 6.500000e+000 1.500000e+001 0.000000e+000
         vertex 6.591154e+000 1.395811e+001 0.000000e+000
      endloop
   endfacet
   facet normal 0.000000e+000 0.000000e+000 -1.000000e+000
      outer loop
         vertex 0.000000e+000 0.000000e+000 0.000000e+000
         vertex 6.591154e+000 1.395811e+001 0.000000e+000
         vertex 6.861845e+000 1.294788e+001 0.000000e+000
      endloop
   endfacet
   facet normal 0.000000e+000 0.000000e+000 -1.000000e+000
      outer loop
         vertex 6.861845e+000 1.294788e+001 0.000000e+000
         vertex 7.303849e+000 1.200000e+001 0.000000e+000
         vertex 0.000000e+000 0.000000e+000 0.000000e+000
      endloop
   endfacet
   facet normal 0.000000e+000 0.000000e+000 -1.000000e+000
      outer loop
         vertex 0.000000e+000 0.000000e+000 0.000000e+000
         vertex 7.303849e+000 1.200000e+001 0.000000e+000
         vertex 7.903734e+000 1.114327e+001 0.000000e+000
      endloop
   endfacet
   facet normal 0.000000e+000 0.000000e+000 -1.000000e+000
      outer loop
         vertex 0.000000e+000 0.000000e+000 0.000000e+000
         vertex 7.903734e+000 1.114327e+001 0.000000e+000
         vertex 8.643275e+000 1.040373e+001 0.000000e+000
      endloop
   endfacet
   facet normal 0.000000e+000 0.000000e+000 -1.000000e+000
      outer loop
         vertex 4.209626e+001 1.885672e+001 0.000000e+000
         vertex 5.000000e+001 3.000000e+001 0.000000e+000
         vertex 4.269615e+001 1.800000e+001 0.000000e+000
      endloop
   endfacet
   facet normal 0.000000e+000 0.000000e+000 -1.000000e+000
      outer loop
         vertex 4.269615e+001 1.800000e+001 0.000000e+000
         vertex 5.000000e+001 3.000000e+001 0.000000e+000
         vertex 4.313815e+001 1.705212e+001 0.000000e+000
      endloop
   endfacet
   facet normal 0.000000e+000 0.000000e+000 -1.000000e+000
      outer loop
         vertex 1.635673e+001 1.040373e+001 0.000000e+000
         vertex 3.150000e+001 1.500000e+001 0.000000e+000
         vertex 1.550000e+001 9.803847e+000 0.000000e+000
      endloop
   endfacet
   facet normal 0.000000e+000 0.000000e+000 -1.000000e+000
      outer loop
         vertex 1.550000e+001 9.803847e+000 0.000000e+000
         vertex 3.150000e+001 1.500000e+001 0.000000e+000
         vertex 1.455212e+001 9.361844e+000 0.000000e+000
      endloop
   endfacet
   facet normal 0.000000e+000 0.000000e+000 -1.000000e+000
      outer loop
         vertex 3.450000e+001 9.803847e+000 0.000000e+000
         vertex 0.000000e+000 0.000000e+000 0.000000e+000
         vertex 3.364328e+001 1.040373e+001 0.000000e+000
      endloop
   endfacet
   facet normal 0.000000e+000 0.000000e+000 -1.000000e+000
      outer loop
         vertex 3.364328e+001 1.040373e+001 0.000000e+000
         vertex 0.000000e+000 0.000000e+000 0.000000e+000
         vertex 3.290374e+001 1.114327e+001 0.000000e+000
      endloop
   endfacet
   facet normal 0.000000e+000 0.000000e+000 -1.000000e+000
      outer loop
         vertex 4.209626e+001 1.885672e+001 0.000000e+000
         vertex 4.135673e+001 1.959627e+001 0.000000e+000
         vertex 5.000000e+001 3.000000e+001 0.000000e+000
      endloop
   endfacet
   facet normal 0.000000e+000 0.000000e+000 -1.000000e+000
      outer loop
         vertex 5.000000e+001 3.000000e+001 0.000000e+000
         vertex 4.135673e+001 1.959627e+001 0.000000e+000
         vertex 4.050000e+001 2.019615e+001 0.000000e+000
      endloop
   endfacet
   facet normal 0.000000e+000 0.000000e+000 -1.000000e+000
      outer loop
         vertex 5.000000e+001 3.000000e+001 0.000000e+000
         vertex 4.050000e+001 2.019615e+001 0.000000e+000
         vertex 3.955212e+001 2.063815e+001 0.000000e+000
      endloop
   endfacet
   facet normal 0.000000e+000 0.000000e+000 -1.000000e+000
      outer loop
         vertex 3.854189e+001 9.091154e+000 0.000000e+000
         vertex 3.955212e+001 9.361844e+000 0.000000e+000
         vertex 5.000000e+001 0.000000e+000 0.000000e+000
      endloop
   endfacet
   facet normal 0.000000e+000 0.000000e+000 -1.000000e+000
      outer loop
         vertex 5.000000e+001 0.000000e+000 0.000000e+000
         vertex 3.955212e+001 9.361844e+000 0.000000e+000
         vertex 4.050000e+001 9.803847e+000 0.000000e+000
      endloop
   endfacet
   facet normal 0.000000e+000 0.000000e+000 -1.000000e+000
      outer loop
         vertex 5.000000e+001 0.000000e+000 0.000000e+000
         vertex 4.269615e+001 1.200000e+001 0.000000e+000
         vertex 4.313815e+001 1.294788e+001 0.000000e+000
      endloop
   endfacet
   facet normal 0.000000e+000 0.000000e+000 -1.000000e+000
      outer loop
         vertex 8.643275e+000 1.959627e+001 0.000000e+000
         vertex 7.903734e+000 1.885672e+001 0.000000e+000
         vertex 0.000000e+000 3.000000e+001 0.000000e+000
      endloop
   endfacet
   facet normal 0.000000e+000 0.000000e+000 -1.000000e+000
      outer loop
         vertex 0.000000e+000 3.000000e+001 0.000000e+000
         vertex 7.903734e+000 1.885672e+001 0.000000e+000
         vertex 7.303849e+000 1.800000e+001 0.000000e+000
      endloop
   endfacet
   facet normal 0.000000e+000 0.000000e+000 -1.000000e+000
      outer loop
         vertex 8.643275e+000 1.040373e+001 0.000000e+000
         vertex 9.500001e+000 9.803847e+000 0.000000e+000
         vertex 0.000000e+000 0.000000e+000 0.000000e+000
      endloop
   endfacet
   facet normal 0.000000e+000 0.000000e+000 -1.000000e+000
      outer loop
         vertex 0.000000e+000 0.000000e+000 0.000000e+000
         vertex 9.500001e+000 9.803847e+000 0.000000e+000
         vertex 1.044788e+001 9.361844e+000 0.000000e+000
      endloop
   endfacet
   facet normal 0.000000e+000 0.000000e+000 -1.000000e+000
      outer loop
         vertex 0.000000e+000 0.000000e+000 0.000000e+000
         vertex 1.044788e+001 9.361844e+000 0.000000e+000
         vertex 1.145811e+001 9.091154e+000 0.000000e+000
      endloop
   endfacet
   facet normal 0.000000e+000 0.000000e+000 -1.000000e+000
      outer loop
         vertex 4.050000e+001 9.803847e+000 0.000000e+000
         vertex 4.135673e+001 1.040373e+001 0.000000e+000
         vertex 5.000000e+001 0.000000e+000 0.000000e+000
      endloop
   endfacet
   facet normal 0.000000e+000 0.000000e+000 -1.000000e+000
      outer loop
         vertex 5.000000e+001 0.000000e+000 0.000000e+000
         vertex 4.135673e+001 1.040373e+001 0.000000e+000
         vertex 4.209626e+001 1.114327e+001 0.000000e+000
      endloop
   endfacet
   facet normal 0.000000e+000 0.000000e+000 -1.000000e+000
      outer loop
         vertex 5.000000e+001 0.000000e+000 0.000000e+000
         vertex 4.209626e+001 1.114327e+001 0.000000e+000
         vertex 4.269615e+001 1.200000e+001 0.000000e+000
      endloop
   endfacet
   facet normal 0.000000e+000 0.000000e+000 -1.000000e+000
      outer loop
         vertex 4.313815e+001 1.294788e+001 0.000000e+000
         vertex 4.340885e+001 1.395811e+001 0.000000e+000
         vertex 5.000000e+001 0.000000e+000 0.000000e+000
      endloop
   endfacet
   facet normal 0.000000e+000 0.000000e+000 -1.000000e+000
      outer loop
         vertex 5.000000e+001 0.000000e+000 0.000000e+000
         vertex 4.340885e+001 1.395811e+001 0.000000e+000
         vertex 4.350000e+001 1.500000e+001 0.000000e+000
      endloop
   endfacet
   facet normal 0.000000e+000 0.000000e+000 -1.000000e+000
      outer loop
         vertex 5.000000e+001 0.000000e+000 0.000000e+000
         vertex 4.350000e+001 1.500000e+001 0.000000e+000
         vertex 5.000000e+001 3.000000e+001 0.000000e+000
      endloop
   endfacet
   facet normal 0.000000e+000 0.000000e+000 -1.000000e+000
      outer loop
         vertex 5.000000e+001 3.000000e+001 0.000000e+000
         vertex 4.350000e+001 1.500000e+001 0.000000e+000
         vertex 4.340885e+001 1.604189e+001 0.000000e+000
      endloop
   endfacet
   facet normal 0.000000e+000 0.000000e+000 -1.000000e+000
      outer loop
         vertex 5.000000e+001 3.000000e+001 0.000000e+000
         vertex 4.340885e+001 1.604189e+001 0.000000e+000
         vertex 4.313815e+001 1.705212e+001 0.000000e+000
      endloop
   endfacet
   facet normal 0.000000e+000 0.000000e+000 -1.000000e+000
      outer loop
         vertex 7.303849e+000 1.800000e+001 0.000000e+000
         vertex 6.861845e+000 1.705212e+001 0.000000e+000
         vertex 0.000000e+000 3.000000e+001 0.000000e+000
      endloop
   endfacet
   facet normal 0.000000e+000 0.000000e+000 -1.000000e+000
      outer loop
         vertex 0.000000e+000 3.000000e+001 0.000000e+000
         vertex 6.861845e+000 1.705212e+001 0.000000e+000
         vertex 6.591154e+000 1.604189e+001 0.000000e+000
      endloop
   endfacet
   facet normal 0.000000e+000 0.000000e+000 -1.000000e+000
      outer loop
         vertex 0.000000e+000 3.000000e+001 0.000000e+000
         vertex 6.591154e+000 1.604189e+001 0.000000e+000
         vertex 6.500000e+000 1.500000e+001 0.000000e+000
      endloop
   endfacet
   facet normal 0.000000e+000 0.000000e+000 -1.000000e+000
      outer loop
         vertex 3.450000e+001 9.803847e+000 0.000000e+000
         vertex 3.544788e+001 9.361844e+000 0.000000e+000
         vertex 0.000000e+000 0.000000e+000 0.000000e+000
      endloop
   endfacet
   facet normal 0.000000e+000 0.000000e+000 -1.000000e+000
      outer loop
         vertex 0.000000e+000 0.000000e+000 0.000000e+000
         vertex 3.544788e+001 9.361844e+000 0.000000e+000
         vertex 3.645811e+001 9.091154e+000 0.000000e+000
      endloop
   endfacet
   facet normal 0.000000e+000 0.000000e+000 -1.000000e+000
      outer loop
         vertex 0.000000e+000 0.000000e+000 0.000000e+000
         vertex 3.645811e+001 9.091154e+000 0.000000e+000
         vertex 5.000000e+001 0.000000e+000 0.000000e+000
      endloop
   endfacet
   facet normal 0.000000e+000 0.000000e+000 -1.000000e+000
      outer loop
         vertex 5.000000e+001 0.000000e+000 0.000000e+000
         vertex 3.645811e+001 9.091154e+000 0.000000e+000
         vertex 3.750000e+001 9.000000e+000 0.000000e+000
      endloop
   endfacet
   facet normal 0.000000e+000 0.000000e+000 -1.000000e+000
      outer loop
         vertex 5.000000e+001 0.000000e+000 0.000000e+000
         vertex 3.750000e+001 9.000000e+000 0.000000e+000
         vertex 3.854189e+001 9.091154e+000 0.000000e+000
      endloop
   endfacet
   facet normal 0.000000e+000 0.000000e+000 -1.000000e+000
      outer loop
         vertex 3.544788e+001 2.063815e+001 0.000000e+000
         vertex 3.450000e+001 2.019615e+001 0.000000e+000
         vertex 0.000000e+000 3.000000e+001 0.000000e+000
      endloop
   endfacet
   facet normal 0.000000e+000 0.000000e+000 -1.000000e+000
      outer loop
         vertex 0.000000e+000 3.000000e+001 0.000000e+000
         vertex 3.450000e+001 2.019615e+001 0.000000e+000
         vertex 3.364328e+001 1.959627e+001 0.000000e+000
      endloop
   endfacet
   facet normal 0.000000e+000 0.000000e+000 -1.000000e+000
      outer loop
         vertex 1.145811e+001 9.091154e+000 0.000000e+000
         vertex 1.250000e+001 9.000000e+000 0.000000e+000
         vertex 0.000000e+000 0.000000e+000 0.000000e+000
      endloop
   endfacet
   facet normal 0.000000e+000 0.000000e+000 -1.000000e+000
      outer loop
         vertex 0.000000e+000 0.000000e+000 0.000000e+000
         vertex 1.250000e+001 9.000000e+000 0.000000e+000
         vertex 1.354189e+001 9.091154e+000 0.000000e+000
      endloop
   endfacet
   facet normal 0.000000e+000 0.000000e+000 -1.000000e+000
      outer loop
         vertex 0.000000e+000 0.000000e+000 0.000000e+000
         vertex 1.354189e+001 9.091154e+000 0.000000e+000
         vertex 1.455212e+001 9.361844e+000 0.000000e+000
      endloop
   endfacet
   facet normal 0.000000e+000 0.000000e+000 -1.000000e+000
      outer loop
         vertex 3.955212e+001 2.063815e+001 0.000000e+000
         vertex 3.854189e+001 2.090885e+001 0.000000e+000
         vertex 5.000000e+001 3.000000e+001 0.000000e+000
      endloop
   endfacet
   facet normal 0.000000e+000 0.000000e+000 -1.000000e+000
      outer loop
         vertex 5.000000e+001 3.000000e+001 0.000000e+000
         vertex 3.854189e+001 2.090885e+001 0.000000e+000
         vertex 3.750000e+001 2.100000e+001 0.000000e+000
      endloop
   endfacet
   facet normal 0.000000e+000 0.000000e+000 -1.000000e+000
      outer loop
         vertex 5.000000e+001 3.000000e+001 0.000000e+000
         vertex 3.750000e+001 2.100000e+001 0.000000e+000
         vertex 0.000000e+000 3.000000e+001 0.000000e+000
      endloop
   endfacet
   facet normal 0.000000e+000 0.000000e+000 -1.000000e+000
      outer loop
         vertex 0.000000e+000 3.000000e+001 0.000000e+000
         vertex 3.750000e+001 2.100000e+001 0.000000e+000
         vertex 3.645811e+001 2.090885e+001 0.000000e+000
      endloop
   endfacet
   facet normal 0.000000e+000 0.000000e+000 -1.000000e+000
      outer loop
         vertex 0.000000e+000 3.000000e+001 0.000000e+000
         vertex 3.645811e+001 2.090885e+001 0.000000e+000
         vertex 3.544788e+001 2.063815e+001 0.000000e+000
      endloop
   endfacet
   facet normal 0.000000e+000 0.000000e+000 -1.000000e+000
      outer loop
         vertex 3.150000e+001 1.500000e+001 0.000000e+000
         vertex 3.159115e+001 1.395811e+001 0.000000e+000
         vertex 1.455212e+001 9.361844e+000 0.000000e+000
      endloop
   endfacet
   facet normal 0.000000e+000 0.000000e+000 -1.000000e+000
      outer loop
         vertex 1.455212e+001 9.361844e+000 0.000000e+000
         vertex 3.159115e+001 1.395811e+001 0.000000e+000
         vertex 3.186185e+001 1.294788e+001 0.000000e+000
      endloop
   endfacet
   facet normal 0.000000e+000 0.000000e+000 -1.000000e+000
      outer loop
         vertex 1.455212e+001 9.361844e+000 0.000000e+000
         vertex 3.186185e+001 1.294788e+001 0.000000e+000
         vertex 0.000000e+000 0.000000e+000 0.000000e+000
      endloop
   endfacet
   facet normal 0.000000e+000 0.000000e+000 -1.000000e+000
      outer loop
         vertex 0.000000e+000 0.000000e+000 0.000000e+000
         vertex 3.186185e+001 1.294788e+001 0.000000e+000
         vertex 3.230385e+001 1.200000e+001 0.000000e+000
      endloop
   endfacet
   facet normal 0.000000e+000 0.000000e+000 -1.000000e+000
      outer loop
         vertex 0.000000e+000 0.000000e+000 0.000000e+000
         vertex 3.230385e+001 1.200000e+001 0.000000e+000
         vertex 3.290374e+001 1.114327e+001 0.000000e+000
      endloop
   endfacet
   facet normal 0.000000e+000 0.000000e+000 -1.000000e+000
      outer loop
         vertex 3.364328e+001 1.959627e+001 0.000000e+000
         vertex 3.290374e+001 1.885672e+001 0.000000e+000
         vertex 0.000000e+000 3.000000e+001 0.000000e+000
      endloop
   endfacet
   facet normal 0.000000e+000 0.000000e+000 -1.000000e+000
      outer loop
         vertex 0.000000e+000 3.000000e+001 0.000000e+000
         vertex 3.290374e+001 1.885672e+001 0.000000e+000
         vertex 3.230385e+001 1.800000e+001 0.000000e+000
      endloop
   endfacet
   facet normal 0.000000e+000 0.000000e+000 -1.000000e+000
      outer loop
         vertex 0.000000e+000 3.000000e+001 0.000000e+000
         vertex 3.230385e+001 1.800000e+001 0.000000e+000
         vertex 3.186185e+001 1.705212e+001 0.000000e+000
      endloop
   endfacet
   facet normal 0.000000e+000 0.000000e+000 -1.000000e+000
      outer loop
         vertex 1.635673e+001 1.040373e+001 0.000000e+000
         vertex 1.709627e+001 1.114327e+001 0.000000e+000
         vertex 3.150000e+001 1.500000e+001 0.000000e+000
      endloop
   endfacet
   facet normal 0.000000e+000 0.000000e+000 -1.000000e+000
      outer loop
         vertex 3.150000e+001 1.500000e+001 0.000000e+000
         vertex 1.709627e+001 1.114327e+001 0.000000e+000
         vertex 1.769615e+001 1.200000e+001 0.000000e+000
      endloop
   endfacet
   facet normal 0.000000e+000 0.000000e+000 -1.000000e+000
      outer loop
         vertex 3.150000e+001 1.500000e+001 0.000000e+000
         vertex 1.769615e+001 1.200000e+001 0.000000e+000
         vertex 1.813815e+001 1.294788e+001 0.000000e+000
      endloop
   endfacet
   facet normal 0.000000e+000 0.000000e+000 -1.000000e+000
      outer loop
         vertex 0.000000e+000 3.000000e+001 0.000000e+000
         vertex 1.250000e+001 2.100000e+001 0.000000e+000
         vertex 1.145811e+001 2.090885e+001 0.000000e+000
      endloop
   endfacet
   facet normal 0.000000e+000 0.000000e+000 -1.000000e+000
      outer loop
         vertex 1.769615e+001 1.800000e+001 0.000000e+000
         vertex 1.709627e+001 1.885672e+001 0.000000e+000
         vertex 3.186185e+001 1.705212e+001 0.000000e+000
      endloop
   endfacet
   facet normal 0.000000e+000 0.000000e+000 -1.000000e+000
      outer loop
         vertex 3.186185e+001 1.705212e+001 0.000000e+000
         vertex 1.709627e+001 1.885672e+001 0.000000e+000
         vertex 1.635673e+001 1.959627e+001 0.000000e+000
      endloop
   endfacet
   facet normal 0.000000e+000 0.000000e+000 -1.000000e+000
      outer loop
         vertex 1.635673e+001 1.959627e+001 0.000000e+000
         vertex 1.550000e+001 2.019615e+001 0.000000e+000
         vertex 3.186185e+001 1.705212e+001 0.000000e+000
      endloop
   endfacet
   facet normal 0.000000e+000 0.000000e+000 -1.000000e+000
      outer loop
         vertex 3.186185e+001 1.705212e+001 0.000000e+000
         vertex 1.550000e+001 2.019615e+001 0.000000e+000
         vertex 1.455212e+001 2.063815e+001 0.000000e+000
      endloop
   endfacet
   facet normal 0.000000e+000 0.000000e+000 -1.000000e+000
      outer loop
         vertex 3.186185e+001 1.705212e+001 0.000000e+000
         vertex 1.455212e+001 2.063815e+001 0.000000e+000
         vertex 0.000000e+000 3.000000e+001 0.000000e+000
      endloop
   endfacet
   facet normal 0.000000e+000 0.000000e+000 -1.000000e+000
      outer loop
         vertex 0.000000e+000 3.000000e+001 0.000000e+000
         vertex 1.455212e+001 2.063815e+001 0.000000e+000
         vertex 1.354189e+001 2.090885e+001 0.000000e+000
      endloop
   endfacet
   facet normal 0.000000e+000 0.000000e+000 -1.000000e+000
      outer loop
         vertex 0.000000e+000 3.000000e+001 0.000000e+000
         vertex 1.354189e+001 2.090885e+001 0.000000e+000
         vertex 1.250000e+001 2.100000e+001 0.000000e+000
      endloop
   endfacet
   facet normal 0.000000e+000 0.000000e+000 -1.000000e+000
      outer loop
         vertex 1.145811e+001 2.090885e+001 0.000000e+000
         vertex 1.044788e+001 2.063815e+001 0.000000e+000
         vertex 0.000000e+000 3.000000e+001 0.000000e+000
      endloop
   endfacet
   facet normal 0.000000e+000 0.000000e+000 -1.000000e+000
      outer loop
         vertex 0.000000e+000 3.000000e+001 0.000000e+000
         vertex 1.044788e+001 2.063815e+001 0.000000e+000
         vertex 9.500001e+000 2.019615e+001 0.000000e+000
      endloop
   endfacet
   facet normal 0.000000e+000 0.000000e+000 -1.000000e+000
      outer loop
         vertex 0.000000e+000 3.000000e+001 0.000000e+000
         vertex 9.500001e+000 2.019615e+001 0.000000e+000
         vertex 8.643275e+000 1.959627e+001 0.000000e+000
      endloop
   endfacet
   facet normal 0.000000e+000 0.000000e+000 -1.000000e+000
      outer loop
         vertex 1.813815e+001 1.294788e+001 0.000000e+000
         vertex 1.840885e+001 1.395811e+001 0.000000e+000
         vertex 3.150000e+001 1.500000e+001 0.000000e+000
      endloop
   endfacet
   facet normal 0.000000e+000 0.000000e+000 -1.000000e+000
      outer loop
         vertex 3.150000e+001 1.500000e+001 0.000000e+000
         vertex 1.840885e+001 1.395811e+001 0.000000e+000
         vertex 1.850000e+001 1.500000e+001 0.000000e+000
      endloop
   endfacet
   facet normal 0.000000e+000 0.000000e+000 -1.000000e+000
      outer loop
         vertex 3.150000e+001 1.500000e+001 0.000000e+000
         vertex 1.850000e+001 1.500000e+001 0.000000e+000
         vertex 3.159115e+001 1.604189e+001 0.000000e+000
      endloop
   endfacet
   facet normal 0.000000e+000 0.000000e+000 -1.000000e+000
      outer loop
         vertex 3.159115e+001 1.604189e+001 0.000000e+000
         vertex 1.850000e+001 1.500000e+001 0.000000e+000
         vertex 1.840885e+001 1.604189e+001 0.000000e+000
      endloop
   endfacet
   facet normal 0.000000e+000 0.000000e+000 -1.000000e+000
      outer loop
         vertex 3.159115e+001 1.604189e+001 0.000000e+000
         vertex 1.840885e+001 1.604189e+001 0.000000e+000
         vertex 3.186185e+001 1.705212e+001 0.000000e+000
      endloop
   endfacet
   facet normal 0.000000e+000 0.000000e+000 -1.000000e+000
      outer loop
         vertex 3.186185e+001 1.705212e+001 0.000000e+000
         vertex 1.840885e+001 1.604189e+001 0.000000e+000
         vertex 1.813815e+001 1.705212e+001 0.000000e+000
      endloop
   endfacet
   facet normal 0.000000e+000 0.000000e+000 -1.000000e+000
      outer loop
         vertex 3.186185e+001 1.705212e+001 0.000000e+000
         vertex 1.813815e+001 1.705212e+001 0.000000e+000
         vertex 1.769615e+001 1.800000e+001 0.000000e+000
      endloop
   endfacet
   facet normal -1.000000e+000 0.000000e+000 0.000000e+000
      outer loop
         vertex 0.000000e+000 0.000000e+000 1.000000e+001
         vertex 0.000000e+000 3.000000e+001 1.000000e+001
         vertex 0.000000e+000 0.000000e+000 0.000000e+000
      endloop
   endfacet
   facet normal -1.000000e+000 0.000000e+000 0.000000e+000
      outer loop
         vertex 0.000000e+000 0.000000e+000 0.000000e+000
         vertex 0.000000e+000 3.000000e+001 1.000000e+001
         vertex 0.000000e+000 3.000000e+001 0.000000e+000
      endloop
   endfacet
   facet normal 0.000000e+000 -1.000000e+000 0.000000e+000
      outer loop
         vertex 5.000000e+001 0.000000e+000 1.000000e+001
         vertex 0.000000e+000 0.000000e+000 1.000000e+001
         vertex 5.000000e+001 0.000000e+000 0.000000e+000
      endloop
   endfacet
   facet normal 0.000000e+000 -1.000000e+000 0.000000e+000
      outer loop
         vertex 5.000000e+001 0.000000e+000 0.000000e+000
         vertex 0.000000e+000 0.000000e+000 1.000000e+001
         vertex 0.000000e+000 0.000000e+000 0.000000e+000
      endloop
   endfacet
   facet normal 1.000000e+000 0.000000e+000 0.000000e+000
      outer loop
         vertex 5.000000e+001 3.000000e+001 1.000000e+001
         vertex 5.000000e+001 0.000000e+000 1.000000e+001
         vertex 5.000000e+001 3.000000e+001 0.000000e+000
      endloop
   endfacet
   facet normal 1.000000e+000 0.000000e+000 0.000000e+000
      outer loop
         vertex 5.000000e+001 3.000000e+001 0.000000e+000
         vertex 5.000000e+001 0.000000e+000 1.000000e+001
         vertex 5.000000e+001 0.000000e+000 0.000000e+000
      endloop
   endfacet
   facet normal 0.000000e+000 1.000000e+000 0.000000e+000
      outer loop
         vertex 0.000000e+000 3.000000e+001 1.000000e+001
         vertex 5.000000e+001 3.000000e+001 1.000000e+001
         vertex 0.000000e+000 3.000000e+001 0.000000e+000
      endloop
   endfacet
   facet normal 0.000000e+000 1.000000e+000 0.000000e+000
      outer loop
         vertex 0.000000e+000 3.000000e+001 0.000000e+000
         vertex 5.000000e+001 3.000000e+001 1.000000e+001
         vertex 5.000000e+001 3.000000e+001 0.000000e+000
      endloop
   endfacet
   facet normal 9.983119e-001 -5.807913e-002 0.000000e+000
      outer loop
         vertex 6.500000e+000 1.500000e+001 1.000000e+001
         vertex 6.500000e+000 1.500000e+001 0.000000e+000
         vertex 6.591154e+000 1.604189e+001 1.000000e+001
      endloop
   endfacet
   facet normal 9.932307e-001 -1.161583e-001 0.000000e+000
      outer loop
         vertex 6.591154e+000 1.604189e+001 1.000000e+001
         vertex 6.500000e+000 1.500000e+001 0.000000e+000
         vertex 6.591154e+000 1.604189e+001 0.000000e+000
      endloop
   endfacet
   facet normal 9.730600e-001 -2.305519e-001 0.000000e+000
      outer loop
         vertex 6.591154e+000 1.604189e+001 1.000000e+001
         vertex 6.591154e+000 1.604189e+001 0.000000e+000
         vertex 6.861845e+000 1.705212e+001 1.000000e+001
      endloop
   endfacet
   facet normal 9.579706e-001 -2.868663e-001 0.000000e+000
      outer loop
         vertex 6.861845e+000 1.705212e+001 1.000000e+001
         vertex 6.591154e+000 1.604189e+001 0.000000e+000
         vertex 6.861845e+000 1.705212e+001 0.000000e+000
      endloop
   endfacet
   facet normal 9.182422e-001 -3.960194e-001 0.000000e+000
      outer loop
         vertex 6.861845e+000 1.705212e+001 1.000000e+001
         vertex 6.861845e+000 1.705212e+001 0.000000e+000
         vertex 7.303849e+000 1.800000e+001 1.000000e+001
      endloop
   endfacet
   facet normal 8.936031e-001 -4.488580e-001 0.000000e+000
      outer loop
         vertex 7.303849e+000 1.800000e+001 1.000000e+001
         vertex 6.861845e+000 1.705212e+001 0.000000e+000
         vertex 7.303849e+000 1.800000e+001 0.000000e+000
      endloop
   endfacet
   facet normal 8.355240e-001 -5.494540e-001 0.000000e+000
      outer loop
         vertex 7.303849e+000 1.800000e+001 1.000000e+001
         vertex 7.303849e+000 1.800000e+001 0.000000e+000
         vertex 7.903734e+000 1.885672e+001 1.000000e+001
      endloop
   endfacet
   facet normal 8.020838e-001 -5.972114e-001 0.000000e+000
      outer loop
         vertex 7.903734e+000 1.885672e+001 1.000000e+001
         vertex 7.303849e+000 1.800000e+001 0.000000e+000
         vertex 7.903734e+000 1.885672e+001 0.000000e+000
      endloop
   endfacet
   facet normal 7.274188e-001 -6.861938e-001 0.000000e+000
      outer loop
         vertex 7.903734e+000 1.885672e+001 1.000000e+001
         vertex 7.903734e+000 1.885672e+001 0.000000e+000
         vertex 8.643275e+000 1.959627e+001 1.000000e+001
      endloop
   endfacet
   facet normal 6.861938e-001 -7.274188e-001 0.000000e+000
      outer loop
         vertex 8.643275e+000 1.959627e+001 1.000000e+001
         vertex 7.903734e+000 1.885672e+001 0.000000e+000
         vertex 8.643275e+000 1.959627e+001 0.000000e+000
      endloop
   endfacet
   facet normal 5.972114e-001 -8.020838e-001 0.000000e+000
      outer loop
         vertex 8.643275e+000 1.959627e+001 1.000000e+001
         vertex 8.643275e+000 1.959627e+001 0.000000e+000
         vertex 9.500001e+000 2.019615e+001 1.000000e+001
      endloop
   endfacet
   facet normal 5.494540e-001 -8.355240e-001 0.000000e+000
      outer loop
         vertex 9.500001e+000 2.019615e+001 1.000000e+001
         vertex 8.643275e+000 1.959627e+001 0.000000e+000
         vertex 9.500001e+000 2.019615e+001 0.000000e+000
      endloop
   endfacet
   facet normal 4.488580e-001 -8.936031e-001 0.000000e+000
      outer loop
         vertex 9.500001e+000 2.019615e+001 1.000000e+001
         vertex 9.500001e+000 2.019615e+001 0.000000e+000
         vertex 1.044788e+001 2.063815e+001 1.000000e+001
      endloop
   endfacet
   facet normal 3.960194e-001 -9.182422e-001 0.000000e+000
      outer loop
         vertex 1.044788e+001 2.063815e+001 1.000000e+001
         vertex 9.500001e+000 2.019615e+001 0.000000e+000
         vertex 1.044788e+001 2.063815e+001 0.000000e+000
      endloop
   endfacet
   facet normal 2.868663e-001 -9.579706e-001 0.000000e+000
      outer loop
         vertex 1.044788e+001 2.063815e+001 1.000000e+001
         vertex 1.044788e+001 2.063815e+001 0.000000e+000
         vertex 1.145811e+001 2.090885e+001 1.000000e+001
      endloop
   endfacet
   facet normal 2.305519e-001 -9.730600e-001 0.000000e+000
      outer loop
         vertex 1.145811e+001 2.090885e+001 1.000000e+001
         vertex 1.044788e+001 2.063815e+001 0.000000e+000
         vertex 1.145811e+001 2.090885e+001 0.000000e+000
      endloop
   endfacet
   facet normal 1.161583e-001 -9.932307e-001 0.000000e+000
      outer loop
         vertex 1.145811e+001 2.090885e+001 1.000000e+001
         vertex 1.145811e+001 2.090885e+001 0.000000e+000
         vertex 1.250000e+001 2.100000e+001 1.000000e+001
      endloop
   endfacet
   facet normal 5.807913e-002 -9.983119e-001 0.000000e+000
      outer loop
         vertex 1.250000e+001 2.100000e+001 1.000000e+001
         vertex 1.145811e+001 2.090885e+001 0.000000e+000
         vertex 1.250000e+001 2.100000e+001 0.000000e+000
      endloop
   endfacet
   facet normal -5.807913e-002 -9.983119e-001 0.000000e+000
      outer loop
         vertex 1.250000e+001 2.100000e+001 1.000000e+001
         vertex 1.250000e+001 2.100000e+001 0.000000e+000
         vertex 1.354189e+001 2.090885e+001 1.000000e+001
      endloop
   endfacet
   facet normal -1.161583e-001 -9.932307e-001 0.000000e+000
      outer loop
         vertex 1.354189e+001 2.090885e+001 1.000000e+001
         vertex 1.250000e+001 2.100000e+001 0.000000e+000
         vertex 1.354189e+001 2.090885e+001 0.000000e+000
      endloop
   endfacet
   facet normal -2.305519e-001 -9.730600e-001 0.000000e+000
      outer loop
         vertex 1.354189e+001 2.090885e+001 1.000000e+001
         vertex 1.354189e+001 2.090885e+001 0.000000e+000
         vertex 1.455212e+001 2.063815e+001 1.000000e+001
      endloop
   endfacet
   facet normal -2.868663e-001 -9.579706e-001 0.000000e+000
      outer loop
         vertex 1.455212e+001 2.063815e+001 1.000000e+001
         vertex 1.354189e+001 2.090885e+001 0.000000e+000
         vertex 1.455212e+001 2.063815e+001 0.000000e+000
      endloop
   endfacet
   facet normal -3.960194e-001 -9.182422e-001 0.000000e+000
      outer loop
         vertex 1.455212e+001 2.063815e+001 1.000000e+001
         vertex 1.455212e+001 2.063815e+001 0.000000e+000
         vertex 1.550000e+001 2.019615e+001 1.000000e+001
      endloop
   endfacet
   facet normal -4.488580e-001 -8.936031e-001 0.000000e+000
      outer loop
         vertex 1.550000e+001 2.019615e+001 1.000000e+001
         vertex 1.455212e+001 2.063815e+001 0.000000e+000
         vertex 1.550000e+001 2.019615e+001 0.000000e+000
      endloop
   endfacet
   facet normal -5.494540e-001 -8.355240e-001 0.000000e+000
      outer loop
         vertex 1.550000e+001 2.019615e+001 1.000000e+001
         vertex 1.550000e+001 2.019615e+001 0.000000e+000
         vertex 1.635673e+001 1.959627e+001 1.000000e+001
      endloop
   endfacet
   facet normal -5.972114e-001 -8.020838e-001 0.000000e+000
      outer loop
         vertex 1.635673e+001 1.959627e+001 1.000000e+001
         vertex 1.550000e+001 2.019615e+001 0.000000e+000
         vertex 1.635673e+001 1.959627e+001 0.000000e+000
      endloop
   endfacet
   facet normal -6.861938e-001 -7.274188e-001 0.000000e+000
      outer loop
         vertex 1.635673e+001 1.959627e+001 1.000000e+001
         vertex 1.635673e+001 1.959627e+001 0.000000e+000
         vertex 1.709627e+001 1.885672e+001 1.000000e+001
      endloop
   endfacet
   facet normal -7.274188e-001 -6.861938e-001 0.000000e+000
      outer loop
         vertex 1.709627e+001 1.885672e+001 1.000000e+001
         vertex 1.635673e+001 1.959627e+001 0.000000e+000
         vertex 1.709627e+001 1.885672e+001 0.000000e+000
      endloop
   endfacet
   facet normal -8.020838e-001 -5.972114e-001 0.000000e+000
      outer loop
         vertex 1.709627e+001 1.885672e+001 1.000000e+001
         vertex 1.709627e+001 1.885672e+001 0.000000e+000
         vertex 1.769615e+001 1.800000e+001 1.000000e+001
      endloop
   endfacet
   facet normal -8.355240e-001 -5.494540e-001 0.000000e+000
      outer loop
         vertex 1.769615e+001 1.800000e+001 1.000000e+001
         vertex 1.709627e+001 1.885672e+001 0.000000e+000
         vertex 1.769615e+001 1.800000e+001 0.000000e+000
      endloop
   endfacet
   facet normal -8.936031e-001 -4.488580e-001 0.000000e+000
      outer loop
         vertex 1.769615e+001 1.800000e+001 1.000000e+001
         vertex 1.769615e+001 1.800000e+001 0.000000e+000
         vertex 1.813815e+001 1.705212e+001 1.000000e+001
      endloop
   endfacet
   facet normal -9.182422e-001 -3.960194e-001 0.000000e+000
      outer loop
         vertex 1.813815e+001 1.705212e+001 1.000000e+001
         vertex 1.769615e+001 1.800000e+001 0.000000e+000
         vertex 1.813815e+001 1.705212e+001 0.000000e+000
      endloop
   endfacet
   facet normal -9.579706e-001 -2.868663e-001 0.000000e+000
      outer loop
         vertex 1.813815e+001 1.705212e+001 1.000000e+001
         vertex 1.813815e+001 1.705212e+001 0.000000e+000
         vertex 1.840885e+001 1.604189e+001 1.000000e+001
      endloop
   endfacet
   facet normal -9.730600e-001 -2.305519e-001 0.000000e+000
      outer loop
         vertex 1.840885e+001 1.604189e+001 1.000000e+001
         vertex 1.813815e+001 1.705212e+001 0.000000e+000
         vertex 1.840885e+001 1.604189e+001 0.000000e+000
      endloop
   endfacet
   facet normal -9.932307e-001 -1.161583e-001 0.000000e+000
      outer loop
         vertex 1.840885e+001 1.604189e+001 1.000000e+001
         vertex 1.840885e+001 1.604189e+001 0.000000e+000
         vertex 1.850000e+001 1.500000e+001 1.000000e+001
      endloop
   endfacet
   facet normal -9.983119e-001 -5.807913e-002 0.000000e+000
      outer loop
         vertex 1.850000e+001 1.500000e+001 1.000000e+001
         vertex 1.840885e+001 1.604189e+001 0.000000e+000
         vertex 1.850000e+001 1.500000e+001 0.000000e+000
      endloop
   endfacet
   facet normal -9.983119e-001 5.807913e-002 0.000000e+000
      outer loop
         vertex 1.850000e+001 1.500000e+001 1.000000e+001
         vertex 1.850000e+001 1.500000e+001 0.000000e+000
         vertex 1.840885e+001 1.395811e+001 1.000000e+001
      endloop
   endfacet
   facet normal -9.932307e-001 1.161583e-001 0.000000e+000
      outer loop
         vertex 1.840885e+001 1.395811e+001 1.000000e+001
         vertex 1.850000e+001 1.500000e+001 0.000000e+000
         vertex 1.840885e+001 1.395811e+001 0.000000e+000
      endloop
   endfacet
   facet normal -9.730600e-001 2.305519e-001 0.000000e+000
      outer loop
         vertex 1.840885e+001 1.395811e+001 1.000000e+001
         vertex 1.840885e+001 1.395811e+001 0.000000e+000
         vertex 1.813815e+001 1.294788e+001 1.000000e+001
      endloop
   endfacet
   facet normal -9.579706e-001 2.868663e-001 0.000000e+000
      outer loop
         vertex 1.813815e+001 1.294788e+001 1.000000e+001
         vertex 1.840885e+001 1.395811e+001 0.000000e+000
         vertex 1.813815e+001 1.294788e+001 0.000000e+000
      endloop
   endfacet
   facet normal -9.182422e-001 3.960194e-001 0.000000e+000
      outer loop
         vertex 1.813815e+001 1.294788e+001 1.000000e+001
         vertex 1.813815e+001 1.294788e+001 0.000000e+000
         vertex 1.769615e+001 1.200000e+001 1.000000e+001
      endloop
   endfacet
   facet normal -8.936031e-001 4.488580e-001 0.000000e+000
      outer loop
         vertex 1.769615e+001 1.200000e+001 1.000000e+001
         vertex 1.813815e+001 1.294788e+001 0.000000e+000
         vertex 1.769615e+001 1.200000e+001 0.000000e+000
      endloop
   endfacet
   facet normal -8.355240e-001 5.494540e-001 0.000000e+000
      outer loop
         vertex 1.769615e+001 1.200000e+001 1.000000e+001
         vertex 1.769615e+001 1.200000e+001 0.000000e+000
         vertex 1.709627e+001 1.114327e+001 1.000000e+001
      endloop
   endfacet
   facet normal -8.020838e-001 5.972114e-001 0.000000e+000
      outer loop
         vertex 1.709627e+001 1.114327e+001 1.000000e+001
         vertex 1.769615e+001 1.200000e+001 0.000000e+000
         vertex 1.709627e+001 1.114327e+001 0.000000e+000
      endloop
   endfacet
   facet normal -7.274188e-001 6.861938e-001 0.000000e+000
      outer loop
         vertex 1.709627e+001 1.114327e+001 1.000000e+001
         vertex 1.709627e+001 1.114327e+001 0.000000e+000
         vertex 1.635673e+001 1.040373e+001 1.000000e+001
      endloop
   endfacet
   facet normal -6.861938e-001 7.274188e-001 0.000000e+000
      outer loop
         vertex 1.635673e+001 1.040373e+001 1.000000e+001
         vertex 1.709627e+001 1.114327e+001 0.000000e+000
         vertex 1.635673e+001 1.040373e+001 0.000000e+000
      endloop
   endfacet
   facet normal -5.972114e-001 8.020838e-001 0.000000e+000
      outer loop
         vertex 1.635673e+001 1.040373e+001 1.000000e+001
         vertex 1.635673e+001 1.040373e+001 0.000000e+000
         vertex 1.550000e+001 9.803847e+000 1.000000e+001
      endloop
   endfacet
   facet normal -5.494540e-001 8.355240e-001 0.000000e+000
      outer loop
         vertex 1.550000e+001 9.803847e+000 1.000000e+001
         vertex 1.635673e+001 1.040373e+001 0.000000e+000
         vertex 1.550000e+001 9.803847e+000 0.000000e+000
      endloop
   endfacet
   facet normal -4.488580e-001 8.936031e-001 0.000000e+000
      outer loop
         vertex 1.550000e+001 9.803847e+000 1.000000e+001
         vertex 1.550000e+001 9.803847e+000 0.000000e+000
         vertex 1.455212e+001 9.361844e+000 1.000000e+001
      endloop
   endfacet
   facet normal -3.960194e-001 9.182422e-001 0.000000e+000
      outer loop
         vertex 1.455212e+001 9.361844e+000 1.000000e+001
         vertex 1.550000e+001 9.803847e+000 0.000000e+000
         vertex 1.455212e+001 9.361844e+000 0.000000e+000
      endloop
   endfacet
   facet normal -2.868663e-001 9.579706e-001 0.000000e+000
      outer loop
         vertex 1.455212e+001 9.361844e+000 1.000000e+001
         vertex 1.455212e+001 9.361844e+000 0.000000e+000
         vertex 1.354189e+001 9.091154e+000 1.000000e+001
      endloop
   endfacet
   facet normal -2.305519e-001 9.730600e-001 0.000000e+000
      outer loop
         vertex 1.354189e+001 9.091154e+000 1.000000e+001
         vertex 1.455212e+001 9.361844e+000 0.000000e+000
         vertex 1.354189e+001 9.091154e+000 0.000000e+000
      endloop
   endfacet
   facet normal -1.161583e-001 9.932307e-001 0.000000e+000
      outer loop
         vertex 1.354189e+001 9.091154e+000 1.000000e+001
         vertex 1.354189e+001 9.091154e+000 0.000000e+000
         vertex 1.250000e+001 9.000000e+000 1.000000e+001
      endloop
   endfacet
   facet normal -5.807913e-002 9.983119e-001 0.000000e+000
      outer loop
         vertex 1.250000e+001 9.000000e+000 1.000000e+001
         vertex 1.354189e+001 9.091154e+000 0.000000e+000
         vertex 1.250000e+001 9.000000e+000 0.000000e+000
      endloop
   endfacet
   facet normal 5.807913e-002 9.983119e-001 0.000000e+000
      outer loop
         vertex 1.250000e+001 9.000000e+000 1.000000e+001
         vertex 1.250000e+001 9.000000e+000 0.000000e+000
         vertex 1.145811e+001 9.091154e+000 1.000000e+001
      endloop
   endfacet
   facet normal 1.161583e-001 9.932307e-001 0.000000e+000
      outer loop
         vertex 1.145811e+001 9.091154e+000 1.000000e+001
         vertex 1.250000e+001 9.000000e+000 0.000000e+000
         vertex 1.145811e+001 9.091154e+000 0.000000e+000
      endloop
   endfacet
   facet normal 2.305519e-001 9.730600e-001 0.000000e+000
      outer loop
         vertex 1.145811e+001 9.091154e+000 1.000000e+001
         vertex 1.145811e+001 9.091154e+000 0.000000e+000
         vertex 1.044788e+001 9.361844e+000 1.000000e+001
      endloop
   endfacet
   facet normal 2.868663e-001 9.579706e-001 0.000000e+000
      outer loop
         vertex 1.044788e+001 9.361844e+000 1.000000e+001
         vertex 1.145811e+001 9.091154e+000 0.000000e+000
         vertex 1.044788e+001 9.361844e+000 0.000000e+000
      endloop
   endfacet
   facet normal 3.960194e-001 9.182422e-001 0.000000e+000
      outer loop
         vertex 1.044788e+001 9.361844e+000 1.000000e+001
         vertex 1.044788e+001 9.361844e+000 0.000000e+000
         vertex 9.500001e+000 9.803847e+000 1.000000e+001
      endloop
   endfacet
   facet normal 4.488580e-001 8.936031e-001 0.000000e+000
      outer loop
         vertex 9.500001e+000 9.803847e+000 1.000000e+001
         vertex 1.044788e+001 9.361844e+000 0.000000e+000
         vertex 9.500001e+000 9.803847e+000 0.000000e+000
      endloop
   endfacet
   facet normal 5.494540e-001 8.355240e-001 0.000000e+000
      outer loop
         vertex 9.500001e+000 9.803847e+000 1.000000e+001
         vertex 9.500001e+000 9.803847e+000 0.000000e+000
         vertex 8.643275e+000 1.040373e+001 1.000000e+001
      endloop
   endfacet
   facet normal 5.972114e-001 8.020838e-001 0.000000e+000
      outer loop
         vertex 8.643275e+000 1.040373e+001 1.000000e+001
         vertex 9.500001e+000 9.803847e+000 0.000000e+000
         vertex 8.643275e+000 1.040373e+001 0.000000e+000
      endloop
   endfacet
   facet normal 6.861938e-001 7.274188e-001 0.000000e+000
      outer loop
         vertex 8.643275e+000 1.040373e+001 1.000000e+001
         vertex 8.643275e+000 1.040373e+001 0.000000e+000
         vertex 7.903734e+000 1.114327e+001 1.000000e+001
      endloop
   endfacet
   facet normal 7.274188e-001 6.861938e-001 0.000000e+000
      outer loop
         vertex 7.903734e+000 1.114327e+001 1.000000e+001
         vertex 8.643275e+000 1.040373e+001 0.000000e+000
         vertex 7.903734e+000 1.114327e+001 0.000000e+000
      endloop
   endfacet
   facet normal 8.020838e-001 5.972114e-001 0.000000e+000
      outer loop
         vertex 7.903734e+000 1.114327e+001 1.000000e+001
         vertex 7.903734e+000 1.114327e+001 0.000000e+000
         vertex 7.303849e+000 1.200000e+001 1.000000e+001
      endloop
   endfacet
   facet normal 8.355240e-001 5.494540e-001 0.000000e+000
      outer loop
         vertex 7.303849e+000 1.200000e+001 1.000000e+001
         vertex 7.903734e+000 1.114327e+001 0.000000e+000
         vertex 7.303849e+000 1.200000e+001 0.000000e+000
      endloop
   endfacet
   facet normal 8.936031e-001 4.488580e-001 0.000000e+000
      outer loop
         vertex 7.303849e+000 1.200000e+001 1.000000e+001
         vertex 7.303849e+000 1.200000e+001 0.000000e+000
         vertex 6.861845e+000 1.294788e+001 1.000000e+001
      endloop
   endfacet
   facet normal 9.182422e-001 3.960194e-001 0.000000e+000
      outer loop
         vertex 6.861845e+000 1.294788e+001 1.000000e+001
         vertex 7.303849e+000 1.200000e+001 0.000000e+000
         vertex 6.861845e+000 1.294788e+001 0.000000e+000
      endloop
   endfacet
   facet normal 9.579706e-001 2.868663e-001 0.000000e+000
      outer loop
         vertex 6.861845e+000 1.294788e+001 1.000000e+001
         vertex 6.861845e+000 1.294788e+001 0.000000e+000
         vertex 6.591154e+000 1.395811e+001 1.000000e+001
      endloop
   endfacet
   facet normal 9.730600e-001 2.305519e-001 0.000000e+000
      outer loop
         vertex 6.591154e+000 1.395811e+001 1.000000e+001
         vertex 6.861845e+000 1.294788e+001 0.000000e+000
         vertex 6.591154e+000 1.395811e+001 0.000000e+000
      endloop
   endfacet
   facet normal 9.932307e-001 1.161583e-001 0.000000e+000
      outer loop
         vertex 6.591154e+000 1.395811e+001 1.000000e+001
         vertex 6.591154e+000 1.395811e+001 0.000000e+000
         vertex 6.500000e+000 1.500000e+001 1.000000e+001
      endloop
   endfacet
   facet normal 9.983119e-001 5.807913e-002 0.000000e+000
      outer loop
         vertex 6.500000e+000 1.500000e+001 1.000000e+001
         vertex 6.591154e+000 1.395811e+001 0.000000e+000
         vertex 6.500000e+000 1.500000e+001 0.000000e+000
      endloop
   endfacet
   facet normal 9.983119e-001 -5.807913e-002 0.000000e+000
      outer loop
         vertex 3.150000e+001 1.500000e+001 1.000000e+001
         vertex 3.150000e+001 1.500000e+001 0.000000e+000
         vertex 3.159115e+001 1.604189e+001 1.000000e+001
      endloop
   endfacet
   facet normal 9.932307e-001 -1.161583e-001 0.000000e+000
      outer loop
         vertex 3.159115e+001 1.604189e+001 1.000000e+001
         vertex 3.150000e+001 1.500000e+001 0.000000e+000
         vertex 3.159115e+001 1.604189e+001 0.000000e+000
      endloop
   endfacet
   facet normal 9.730600e-001 -2.305519e-001 0.000000e+000
      outer loop
         vertex 3.159115e+001 1.604189e+001 1.000000e+001
         vertex 3.159115e+001 1.604189e+001 0.000000e+000
         vertex 3.186185e+001 1.705212e+001 1.000000e+001
      endloop
   endfacet
   facet normal 9.579706e-001 -2.868663e-001 0.000000e+000
      outer loop
         vertex 3.186185e+001 1.705212e+001 1.000000e+001
         vertex 3.159115e+001 1.604189e+001 0.000000e+000
         vertex 3.186185e+001 1.705212e+001 0.000000e+000
      endloop
   endfacet
   facet normal 9.182422e-001 -3.960194e-001 0.000000e+000
      outer loop
         vertex 3.186185e+001 1.705212e+001 1.000000e+001
         vertex 3.186185e+001 1.705212e+001 0.000000e+000
         vertex 3.230385e+001 1.800000e+001 1.000000e+001
      endloop
   endfacet
   facet normal 8.936031e-001 -4.488580e-001 0.000000e+000
      outer loop
         vertex 3.230385e+001 1.800000e+001 1.000000e+001
         vertex 3.186185e+001 1.705212e+001 0.000000e+000
         vertex 3.230385e+001 1.800000e+001 0.000000e+000
      endloop
   endfacet
   facet normal 8.355240e-001 -5.494540e-001 0.000000e+000
      outer loop
         vertex 3.230385e+001 1.800000e+001 1.000000e+001
         vertex 3.230385e+001 1.800000e+001 0.000000e+000
         vertex 3.290374e+001 1.885672e+001 1.000000e+001
      endloop
   endfacet
   facet normal 8.020838e-001 -5.972114e-001 0.000000e+000
      outer loop
         vertex 3.290374e+001 1.885672e+001 1.000000e+001
         vertex 3.230385e+001 1.800000e+001 0.000000e+000
         vertex 3.290374e+001 1.885672e+001 0.000000e+000
      endloop
   endfacet
   facet normal 7.274188e-001 -6.861938e-001 0.000000e+000
      outer loop
         vertex 3.290374e+001 1.885672e+001 1.000000e+001
         vertex 3.290374e+001 1.885672e+001 0.000000e+000
         vertex 3.364328e+001 1.959627e+001 1.000000e+001
      endloop
   endfacet
   facet normal 6.861938e-001 -7.274188e-001 0.000000e+000
      outer loop
         vertex 3.364328e+001 1.959627e+001 1.000000e+001
         vertex 3.290374e+001 1.885672e+001 0.000000e+000
         vertex 3.364328e+001 1.959627e+001 0.000000e+000
      endloop
   endfacet
   facet normal 5.972114e-001 -8.020838e-001 0.000000e+000
      outer loop
         vertex 3.364328e+001 1.959627e+001 1.000000e+001
         vertex 3.364328e+001 1.959627e+001 0.000000e+000
         vertex 3.450000e+001 2.019615e+001 1.000000e+001
      endloop
   endfacet
   facet normal 5.494540e-001 -8.355240e-001 0.000000e+000
      outer loop
         vertex 3.450000e+001 2.019615e+001 1.000000e+001
         vertex 3.364328e+001 1.959627e+001 0.000000e+000
         vertex 3.450000e+001 2.019615e+001 0.000000e+000
      endloop
   endfacet
   facet normal 4.488580e-001 -8.936031e-001 0.000000e+000
      outer loop
         vertex 3.450000e+001 2.019615e+001 1.000000e+001
         vertex 3.450000e+001 2.019615e+001 0.000000e+000
         vertex 3.544788e+001 2.063815e+001 1.000000e+001
      endloop
   endfacet
   facet normal 3.960194e-001 -9.182422e-001 0.000000e+000
      outer loop
         vertex 3.544788e+001 2.063815e+001 1.000000e+001
         vertex 3.450000e+001 2.019615e+001 0.000000e+000
         vertex 3.544788e+001 2.063815e+001 0.000000e+000
      endloop
   endfacet
   facet normal 2.868663e-001 -9.579706e-001 0.000000e+000
      outer loop
         vertex 3.544788e+001 2.063815e+001 1.000000e+001
         vertex 3.544788e+001 2.063815e+001 0.000000e+000
         vertex 3.645811e+001 2.090885e+001 1.000000e+001
      endloop
   endfacet
   facet normal 2.305519e-001 -9.730600e-001 0.000000e+000
      outer loop
         vertex 3.645811e+001 2.090885e+001 1.000000e+001
         vertex 3.544788e+001 2.063815e+001 0.000000e+000
         vertex 3.645811e+001 2.090885e+001 0.000000e+000
      endloop
   endfacet
   facet normal 1.161583e-001 -9.932307e-001 0.000000e+000
      outer loop
         vertex 3.645811e+001 2.090885e+001 1.000000e+001
         vertex 3.645811e+001 2.090885e+001 0.000000e+000
         vertex 3.750000e+001 2.100000e+001 1.000000e+001
      endloop
   endfacet
   facet normal 5.807913e-002 -9.983119e-001 0.000000e+000
      outer loop
         vertex 3.750000e+001 2.100000e+001 1.000000e+001
         vertex 3.645811e+001 2.090885e+001 0.000000e+000
         vertex 3.750000e+001 2.100000e+001 0.000000e+000
      endloop
   endfacet
   facet normal -5.807913e-002 -9.983119e-001 0.000000e+000
      outer loop
         vertex 3.750000e+001 2.100000e+001 1.000000e+001
         vertex 3.750000e+001 2.100000e+001 0.000000e+000
         vertex 3.854189e+001 2.090885e+001 1.000000e+001
      endloop
   endfacet
   facet normal -1.161583e-001 -9.932307e-001 0.000000e+000
      outer loop
         vertex 3.854189e+001 2.090885e+001 1.000000e+001
         vertex 3.750000e+001 2.100000e+001 0.000000e+000
         vertex 3.854189e+001 2.090885e+001 0.000000e+000
      endloop
   endfacet
   facet normal -2.305519e-001 -9.730600e-001 0.000000e+000
      outer loop
         vertex 3.854189e+001 2.090885e+001 1.000000e+001
         vertex 3.854189e+001 2.090885e+001 0.000000e+000
         vertex 3.955212e+001 2.063815e+001 1.000000e+001
      endloop
   endfacet
   facet normal -2.868663e-001 -9.579706e-001 0.000000e+000
      outer loop
         vertex 3.955212e+001 2.063815e+001 1.000000e+001
         vertex 3.854189e+001 2.090885e+001 0.000000e+000
         vertex 3.955212e+001 2.063815e+001 0.000000e+000
      endloop
   endfacet
   facet normal -3.960194e-001 -9.182422e-001 0.000000e+000
      outer loop
         vertex 3.955212e+001 2.063815e+001 1.000000e+001
         vertex 3.955212e+001 2.063815e+001 0.000000e+000
         vertex 4.050000e+001 2.019615e+001 1.000000e+001
      endloop
   endfacet
   facet normal -4.488580e-001 -8.936031e-001 0.000000e+000
      outer loop
         vertex 4.050000e+001 2.019615e+001 1.000000e+001
         vertex 3.955212e+001 2.063815e+001 0.000000e+000
         vertex 4.050000e+001 2.019615e+001 0.000000e+000
      endloop
   endfacet
   facet normal -5.494540e-001 -8.355240e-001 0.000000e+000
      outer loop
         vertex 4.050000e+001 2.019615e+001 1.000000e+001
         vertex 4.050000e+001 2.019615e+001 0.000000e+000
         vertex 4.135673e+001 1.959627e+001 1.000000e+001
      endloop
   endfacet
   facet normal -5.972114e-001 -8.020838e-001 0.000000e+000
      outer loop
         vertex 4.135673e+001 1.959627e+001 1.000000e+001
         vertex 4.050000e+001 2.019615e+001 0.000000e+000
         vertex 4.135673e+001 1.959627e+001 0.000000e+000
      endloop
   endfacet
   facet normal -6.861938e-001 -7.274188e-001 0.000000e+000
      outer loop
         vertex 4.135673e+001 1.959627e+001 1.000000e+001
         vertex 4.135673e+001 1.959627e+001 0.000000e+000
         vertex 4.209626e+001 1.885672e+001 1.000000e+001
      endloop
   endfacet
   facet normal -7.274188e-001 -6.861938e-001 0.000000e+000
      outer loop
         vertex 4.209626e+001 1.885672e+001 1.000000e+001
         vertex 4.135673e+001 1.959627e+001 0.000000e+000
         vertex 4.209626e+001 1.885672e+001 0.000000e+000
      endloop
   endfacet
   facet normal -8.020838e-001 -5.972114e-001 0.000000e+000
      outer loop
         vertex 4.209626e+001 1.885672e+001 1.000000e+001
         vertex 4.209626e+001 1.885672e+001 0.000000e+000
         vertex 4.269615e+001 1.800000e+001 1.000000e+001
      endloop
   endfacet
   facet normal -8.355240e-001 -5.494540e-001 0.000000e+000
      outer loop
         vertex 4.269615e+001 1.800000e+001 1.000000e+001
         vertex 4.209626e+001 1.885672e+001 0.000000e+000
         vertex 4.269615e+001 1.800000e+001 0.000000e+000
      endloop
   endfacet
   facet normal -8.936031e-001 -4.488580e-001 0.000000e+000
      outer loop
         vertex 4.269615e+001 1.800000e+001 1.000000e+001
         vertex 4.269615e+001 1.800000e+001 0.000000e+000
         vertex 4.313815e+001 1.705212e+001 1.000000e+001
      endloop
   endfacet
   facet normal -9.182422e-001 -3.960194e-001 0.000000e+000
      outer loop
         vertex 4.313815e+001 1.705212e+001 1.000000e+001
         vertex 4.269615e+001 1.800000e+001 0.000000e+000
         vertex 4.313815e+001 1.705212e+001 0.000000e+000
      endloop
   endfacet
   facet normal -9.579706e-001 -2.868663e-001 0.000000e+000
      outer loop
         vertex 4.313815e+001 1.705212e+001 1.000000e+001
         vertex 4.313815e+001 1.705212e+001 0.000000e+000
         vertex 4.340885e+001 1.604189e+001 1.000000e+001
      endloop
   endfacet
   facet normal -9.730600e-001 -2.305519e-001 0.000000e+000
      outer loop
         vertex 4.340885e+001 1.604189e+001 1.000000e+001
         vertex 4.313815e+001 1.705212e+001 0.000000e+000
         vertex 4.340885e+001 1.604189e+001 0.000000e+000
      endloop
   endfacet
   facet normal -9.932307e-001 -1.161583e-001 0.000000e+000
      outer loop
         vertex 4.340885e+001 1.604189e+001 1.000000e+001
         vertex 4.340885e+001 1.604189e+001 0.000000e+000
         vertex 4.350000e+001 1.500000e+001 1.000000e+001
      endloop
   endfacet
   facet normal -9.983119e-001 -5.807913e-002 0.000000e+000
      outer loop
         vertex 4.350000e+001 1.500000e+001 1.000000e+001
         vertex 4.340885e+001 1.604189e+001 0.000000e+000
         vertex 4.350000e+001 1.500000e+001 0.000000e+000
      endloop
   endfacet
   facet normal -9.983119e-001 5.807913e-002 0.000000e+000
      outer loop
         vertex 4.350000e+001 1.500000e+001 1.000000e+001
         vertex 4.350000e+001 1.500000e+001 0.000000e+000
         vertex 4.340885e+001 1.395811e+001 1.000000e+001
      endloop
   endfacet
   facet normal -9.932307e-001 1.161583e-001 0.000000e+000
      outer loop
         vertex 4.340885e+001 1.395811e+001 1.000000e+001
         vertex 4.350000e+001 1.500000e+001 0.000000e+000
         vertex 4.340885e+001 1.395811e+001 0.000000e+000
      endloop
   endfacet
   facet normal -9.730600e-001 2.305519e-001 0.000000e+000
      outer loop
         vertex 4.340885e+001 1.395811e+001 1.000000e+001
         vertex 4.340885e+001 1.395811e+001 0.000000e+000
         vertex 4.313815e+001 1.294788e+001 1.000000e+001
      endloop
   endfacet
   facet normal -9.579706e-001 2.868663e-001 0.000000e+000
      outer loop
         vertex 4.313815e+001 1.294788e+001 1.000000e+001
         vertex 4.340885e+001 1.395811e+001 0.000000e+000
         vertex 4.313815e+001 1.294788e+001 0.000000e+000
      endloop
   endfacet
   facet normal -9.182422e-001 3.960194e-001 0.000000e+000
      outer loop
         vertex 4.313815e+001 1.294788e+001 1.000000e+001
         vertex 4.313815e+001 1.294788e+001 0.000000e+000
         vertex 4.269615e+001 1.200000e+001 1.000000e+001
      endloop
   endfacet
   facet normal -8.936031e-001 4.488580e-001 0.000000e+000
      outer loop
         vertex 4.269615e+001 1.200000e+001 1.000000e+001
         vertex 4.313815e+001 1.294788e+001 0.000000e+000
         vertex 4.269615e+001 1.200000e+001 0.000000e+000
      endloop
   endfacet
   facet normal -8.355240e-001 5.494540e-001 0.000000e+000
      outer loop
         vertex 4.269615e+001 1.200000e+001 1.000000e+001
         vertex 4.269615e+001 1.200000e+001 0.000000e+000
         vertex 4.209626e+001 1.114327e+001 1.000000e+001
      endloop
   endfacet
   facet normal -8.020838e-001 5.972114e-001 0.000000e+000
      outer loop
         vertex 4.209626e+001 1.114327e+001 1.000000e+001
         vertex 4.269615e+001 1.200000e+001 0.000000e+000
         vertex 4.209626e+001 1.114327e+001 0.000000e+000
      endloop
   endfacet
   facet normal -7.274188e-001 6.861938e-001 0.000000e+000
      outer loop
         vertex 4.209626e+001 1.114327e+001 1.000000e+001
         vertex 4.209626e+001 1.114327e+001 0.000000e+000
         vertex 4.135673e+001 1.040373e+001 1.000000e+001
      endloop
   endfacet
   facet normal -6.861938e-001 7.274188e-001 0.000000e+000
      outer loop
         vertex 4.135673e+001 1.040373e+001 1.000000e+001
         vertex 4.209626e+001 1.114327e+001 0.000000e+000
         vertex 4.135673e+001 1.040373e+001 0.000000e+000
      endloop
   endfacet
   facet normal -5.972114e-001 8.020838e-001 0.000000e+000
      outer loop
         vertex 4.135673e+001 1.040373e+001 1.000000e+001
         vertex 4.135673e+001 1.040373e+001 0.000000e+000
         vertex 4.050000e+001 9.803847e+000 1.000000e+001
      endloop
   endfacet
   facet normal -5.494540e-001 8.355240e-001 0.000000e+000
      outer loop
         vertex 4.050000e+001 9.803847e+000 1.000000e+001
         vertex 4.135673e+001 1.040373e+001 0.000000e+000
         vertex 4.050000e+001 9.803847e+000 0.000000e+000
      endloop
   endfacet
   facet normal -4.488580e-001 8.936031e-001 0.000000e+000
      outer loop
         vertex 4.050000e+001 9.803847e+000 1.000000e+001
         vertex 4.050000e+001 9.803847e+000 0.000000e+000
         vertex 3.955212e+001 9.361844e+000 1.000000e+001
      endloop
   endfacet
   facet normal -3.960194e-001 9.182422e-001 0.000000e+000
      outer loop
         vertex 3.955212e+001 9.361844e+000 1.000000e+001
         vertex 4.050000e+001 9.803847e+000 0.000000e+000
         vertex 3.955212e+001 9.361844e+000 0.000000e+000
      endloop
   endfacet
   facet normal -2.868663e-001 9.579706e-001 0.000000e+000
      outer loop
         vertex 3.955212e+001 9.361844e+000 1.000000e+001
         vertex 3.955212e+001 9.361844e+000 0.000000e+000
         vertex 3.854189e+001 9.091154e+000 1.000000e+001
      endloop
   endfacet
   facet normal -2.305519e-001 9.730600e-001 0.000000e+000
      outer loop
         vertex 3.854189e+001 9.091154e+000 1.000000e+001
         vertex 3.955212e+001 9.361844e+000 0.000000e+000
         vertex 3.854189e+001 9.091154e+000 0.000000e+000
      endloop
   endfacet
   facet normal -1.161583e-001 9.932307e-001 0.000000e+000
      outer loop
         vertex 3.854189e+001 9.091154e+000 1.000000e+001
         vertex 3.854189e+001 9.091154e+000 0.000000e+000
         vertex 3.750000e+001 9.000000e+000 1.000000e+001
      endloop
   endfacet
   facet normal -5.807913e-002 9.983119e-001 0.000000e+000
      outer loop
         vertex 3.750000e+001 9.000000e+000 1.000000e+001
         vertex 3.854189e+001 9.091154e+000 0.000000e+000
         vertex 3.750000e+001 9.000000e+000 0.000000e+000
      endloop
   endfacet
   facet normal 5.807913e-002 9.983119e-001 0.000000e+000
      outer loop
         vertex 3.750000e+001 9.000000e+000 1.000000e+001
         vertex 3.750000e+001 9.000000e+000 0.000000e+000
         vertex 3.645811e+001 9.091154e+000 1.000000e+001
      endloop
   endfacet
   facet normal 1.161583e-001 9.932307e-001 0.000000e+000
      outer loop
         vertex 3.645811e+001 9.091154e+000 1.000000e+001
         vertex 3.750000e+001 9.000000e+000 0.000000e+000
         vertex 3.645811e+001 9.091154e+000 0.000000e+000
      endloop
   endfacet
   facet normal 2.305519e-001 9.730600e-001 0.000000e+000
      outer loop
         vertex 3.645811e+001 9.091154e+000 1.000000e+001
         vertex 3.645811e+001 9.091154e+000 0.000000e+000
         vertex 3.544788e+001 9.361844e+000 1.000000e+001
      endloop
   endfacet
   facet normal 2.868663e-001 9.579706e-001 0.000000e+000
      outer loop
         vertex 3.544788e+001 9.361844e+000 1.000000e+001
         vertex 3.645811e+001 9.091154e+000 0.000000e+000
         vertex 3.544788e+001 9.361844e+000 0.000000e+000
      endloop
   endfacet
   facet normal 3.960194e-001 9.182422e-001 0.000000e+000
      outer loop
         vertex 3.544788e+001 9.361844e+000 1.000000e+001
         vertex 3.544788e+001 9.361844e+000 0.000000e+000
         vertex 3.450000e+001 9.803847e+000 1.000000e+001
      endloop
   endfacet
   facet normal 4.488580e-001 8.936031e-001 0.000000e+000
      outer loop
         vertex 3.450000e+001 9.803847e+000 1.000000e+001
         vertex 3.544788e+001 9.361844e+000 0.000000e+000
         vertex 3.450000e+001 9.803847e+000 0.000000e+000
      endloop
   endfacet
   facet normal 5.494540e-001 8.355240e-001 0.000000e+000
      outer loop
         vertex 3.450000e+001 9.803847e+000 1.000000e+001
         vertex 3.450000e+001 9.803847e+000 0.000000e+000
         vertex 3.364328e+001 1.040373e+001 1.000000e+001
      endloop
   endfacet
   facet normal 5.972114e-001 8.020838e-001 0.000000e+000
      outer loop
         vertex 3.364328e+001 1.040373e+001 1.000000e+001
         vertex 3.450000e+001 9.803847e+000 0.000000e+000
         vertex 3.364328e+001 1.040373e+001 0.000000e+000
      endloop
   endfacet
   facet normal 6.861938e-001 7.274188e-001 0.000000e+000
      outer loop
         vertex 3.364328e+001 1.040373e+001 1.000000e+001
         vertex 3.364328e+001 1.040373e+001 0.000000e+000
         vertex 3.290374e+001 1.114327e+001 1.000000e+001
      endloop
   endfacet
   facet normal 7.274188e-001 6.861938e-001 0.000000e+000
      outer loop
         vertex 3.290374e+001 1.114327e+001 1.000000e+001
         vertex 3.364328e+001 1.040373e+001 0.000000e+000
         vertex 3.290374e+001 1.114327e+001 0.000000e+000
      endloop
   endfacet
   facet normal 8.020838e-001 5.972114e-001 0.000000e+000
      outer loop
         vertex 3.290374e+001 1.114327e+001 1.000000e+001
         vertex 3.290374e+001 1.114327e+001 0.000000e+000
         vertex 3.230385e+001 1.200000e+001 1.000000e+001
      endloop
   endfacet
   facet normal 8.355240e-001 5.494540e-001 0.000000e+000
      outer loop
         vertex 3.230385e+001 1.200000e+001 1.000000e+001
         vertex 3.290374e+001 1.114327e+001 0.000000e+000
         vertex 3.230385e+001 1.200000e+001 0.000000e+000
      endloop
   endfacet
   facet normal 8.936031e-001 4.488580e-001 0.000000e+000
      outer loop
         vertex 3.230385e+001 1.200000e+001 1.000000e+001
         vertex 3.230385e+001 1.200000e+001 0.000000e+000
         vertex 3.186185e+001 1.294788e+001 1.000000e+001
      endloop
   endfacet
   facet normal 9.182422e-001 3.960194e-001 0.000000e+000
      outer loop
         vertex 3.186185e+001 1.294788e+001 1.000000e+001
         vertex 3.230385e+001 1.200000e+001 0.000000e+000
         vertex 3.186185e+001 1.294788e+001 0.000000e+000
      endloop
   endfacet
   facet normal 9.579706e-001 2.868663e-001 0.000000e+000
      outer loop
         vertex 3.186185e+001 1.294788e+001 1.000000e+001
         vertex 3.186185e+001 1.294788e+001 0.000000e+000
         vertex 3.159115e+001 1.395811e+001 1.000000e+001
      endloop
   endfacet
   facet normal 9.730600e-001 2.305519e-001 0.000000e+000
      outer loop
         vertex 3.159115e+001 1.395811e+001 1.000000e+001
         vertex 3.186185e+001 1.294788e+001 0.000000e+000
         vertex 3.159115e+001 1.395811e+001 0.000000e+000
      endloop
   endfacet
   facet normal 9.932307e-001 1.161583e-001 0.000000e+000
      outer loop
         vertex 3.159115e+001 1.395811e+001 1.000000e+001
         vertex 3.159115e+001 1.395811e+001 0.000000e+000
         vertex 3.150000e+001 1.500000e+001 1.000000e+001
      endloop
   endfacet
   facet normal 9.983119e-001 5.807913e-002 0.000000e+000
      outer loop
         vertex 3.150000e+001 1.500000e+001 1.000000e+001
         vertex 3.159115e+001 1.395811e+001 0.000000e+000
         vertex 3.150000e+001 1.500000e+001 0.000000e+000
      endloop
   endfacet
endsolid HolePlate50x20x10